<?xml version="1.0" encoding="utf-8" standalone="no"?>
<!DOCTYPE svg PUBLIC "-//W3C//DTD SVG 1.1//EN"
  "http://www.w3.org/Graphics/SVG/1.1/DTD/svg11.dtd">
<svg xmlns:xlink="http://www.w3.org/1999/xlink" width="856.8pt" height="568.637812pt" viewBox="0 0 856.8 568.637812" xmlns="http://www.w3.org/2000/svg" version="1.1">
 <metadata>
  <rdf:RDF xmlns:dc="http://purl.org/dc/elements/1.1/" xmlns:cc="http://creativecommons.org/ns#" xmlns:rdf="http://www.w3.org/1999/02/22-rdf-syntax-ns#">
   <cc:Work>
    <dc:type rdf:resource="http://purl.org/dc/dcmitype/StillImage"/>
    <dc:date>2026-01-03T04:00:54.799842</dc:date>
    <dc:format>image/svg+xml</dc:format>
    <dc:creator>
     <cc:Agent>
      <dc:title>Matplotlib v3.10.8, https://matplotlib.org/</dc:title>
     </cc:Agent>
    </dc:creator>
   </cc:Work>
  </rdf:RDF>
 </metadata>
 <defs>
  <style type="text/css">*{stroke-linejoin: round; stroke-linecap: butt}</style>
 </defs>
 <g id="figure_1">
  <g id="patch_1">
   <path d="M 0 568.637812 
L 856.8 568.637812 
L 856.8 0 
L 0 0 
z
" style="fill: #ffffff"/>
  </g>
  <g id="axes_1">
   <g id="patch_2">
    <path d="M 394.443627 476.545999 
Q 386.959614 396.307147 379.579431 317.181497 
" clip-path="url(#p98514ecf66)" style="fill: none; stroke: #666666; stroke-linecap: round"/>
    <path d="M 377.959549 321.349947 
L 379.579431 317.181497 
L 381.942263 320.978473 
z
" clip-path="url(#p98514ecf66)" style="fill: #666666; stroke: #666666; stroke-linecap: round"/>
   </g>
   <g id="patch_3">
    <path d="M 377.471131 316.027792 
Q 370.383174 366.689521 363.45013 416.243999 
" clip-path="url(#p98514ecf66)" style="fill: none; stroke: #666666; stroke-linecap: round"/>
    <path d="M 365.98507 412.559698 
L 363.45013 416.243999 
L 362.023653 412.005466 
z
" clip-path="url(#p98514ecf66)" style="fill: #666666; stroke: #666666; stroke-linecap: round"/>
   </g>
   <g id="patch_4">
    <path d="M 382.023907 315.434817 
Q 403.535547 366.686861 424.614491 416.907996 
" clip-path="url(#p98514ecf66)" style="fill: none; stroke: #666666; stroke-linecap: round"/>
    <path d="M 424.910578 412.445672 
L 424.614491 416.907996 
L 421.222285 413.993732 
z
" clip-path="url(#p98514ecf66)" style="fill: #666666; stroke: #666666; stroke-linecap: round"/>
   </g>
   <g id="patch_5">
    <path d="M 437.026246 426.738342 
Q 585.874718 440.737107 733.610068 454.631185 
" clip-path="url(#p98514ecf66)" style="fill: none; stroke: #666666; stroke-linecap: round"/>
    <path d="M 729.814909 452.265436 
L 733.610068 454.631185 
L 729.440374 456.247863 
z
" clip-path="url(#p98514ecf66)" style="fill: #666666; stroke: #666666; stroke-linecap: round"/>
   </g>
   <g id="patch_6">
    <path d="M 357.864349 433.487503 
Q 353.80683 440.737861 350.295312 447.012574 
" clip-path="url(#p98514ecf66)" style="fill: none; stroke: #666666; stroke-linecap: round"/>
    <path d="M 353.994029 444.498715 
L 350.295312 447.012574 
L 350.503455 442.545285 
z
" clip-path="url(#p98514ecf66)" style="fill: #666666; stroke: #666666; stroke-linecap: round"/>
   </g>
   <g id="patch_7">
    <path d="M 337.065245 457.435204 
Q 212.908506 485.16708 89.842914 512.655235 
" clip-path="url(#p98514ecf66)" style="fill: none; stroke: #666666; stroke-linecap: round"/>
    <path d="M 94.182698 513.735176 
L 89.842914 512.655235 
L 93.310737 509.831372 
z
" clip-path="url(#p98514ecf66)" style="fill: #666666; stroke: #666666; stroke-linecap: round"/>
   </g>
   <g id="patch_8">
    <path d="M 88.961344 514.786573 
Q 428.401412 514.786573 766.723446 514.786573 
" clip-path="url(#p98514ecf66)" style="fill: none; stroke: #666666; stroke-linecap: round"/>
    <path d="M 762.723446 512.786573 
L 766.723446 514.786573 
L 762.723446 516.786573 
z
" clip-path="url(#p98514ecf66)" style="fill: #666666; stroke: #666666; stroke-linecap: round"/>
   </g>
   <g id="patch_9">
    <path d="M 88.454089 511.872769 
Q 204.619863 470.35757 319.732816 429.218628 
" clip-path="url(#p98514ecf66)" style="fill: none; stroke: #666666; stroke-linecap: round"/>
    <path d="M 315.293063 428.681419 
L 319.732816 429.218628 
L 316.639197 432.448105 
z
" clip-path="url(#p98514ecf66)" style="fill: #666666; stroke: #666666; stroke-linecap: round"/>
   </g>
   <g id="patch_10">
    <path d="M 84.531873 507.226139 
Q 146.606327 396.305633 208.13478 286.360773 
" clip-path="url(#p98514ecf66)" style="fill: none; stroke: #666666; stroke-linecap: round"/>
    <path d="M 204.436062 288.874632 
L 208.13478 286.360773 
L 207.926637 290.828063 
z
" clip-path="url(#p98514ecf66)" style="fill: #666666; stroke: #666666; stroke-linecap: round"/>
   </g>
   <g id="patch_11">
    <path d="M 333.17414 433.487503 
Q 337.231659 440.737861 340.743177 447.012574 
" clip-path="url(#p98514ecf66)" style="fill: none; stroke: #666666; stroke-linecap: round"/>
    <path d="M 340.535034 442.545285 
L 340.743177 447.012574 
L 337.044459 444.498715 
z
" clip-path="url(#p98514ecf66)" style="fill: #666666; stroke: #666666; stroke-linecap: round"/>
   </g>
   <g id="patch_12">
    <path d="M 772.268127 507.226139 
Q 759.921342 485.163736 748.120558 464.076978 
" clip-path="url(#p98514ecf66)" style="fill: none; stroke: #666666; stroke-linecap: round"/>
    <path d="M 748.328701 468.544267 
L 748.120558 464.076978 
L 751.819275 466.590837 
z
" clip-path="url(#p98514ecf66)" style="fill: #666666; stroke: #666666; stroke-linecap: round"/>
   </g>
   <g id="patch_13">
    <path d="M 739.117343 447.989181 
Q 693.618574 366.687679 648.665807 286.361821 
" clip-path="url(#p98514ecf66)" style="fill: none; stroke: #666666; stroke-linecap: round"/>
    <path d="M 648.87395 290.829111 
L 648.665807 286.361821 
L 652.364524 288.87568 
z
" clip-path="url(#p98514ecf66)" style="fill: #666666; stroke: #666666; stroke-linecap: round"/>
   </g>
   <g id="patch_14">
    <path d="M 635.501222 275.686495 
Q 585.875708 263.018558 537.333489 250.627154 
" clip-path="url(#p98514ecf66)" style="fill: none; stroke: #666666; stroke-linecap: round"/>
    <path d="M 540.714527 253.554368 
L 537.333489 250.627154 
L 541.703883 249.678652 
z
" clip-path="url(#p98514ecf66)" style="fill: #666666; stroke: #666666; stroke-linecap: round"/>
   </g>
   <g id="patch_15">
    <path d="M 639.660436 270.270173 
Q 619.024991 233.396808 598.935546 197.499088 
" clip-path="url(#p98514ecf66)" style="fill: none; stroke: #666666; stroke-linecap: round"/>
    <path d="M 599.143689 201.966377 
L 598.935546 197.499088 
L 602.634264 200.012947 
z
" clip-path="url(#p98514ecf66)" style="fill: #666666; stroke: #666666; stroke-linecap: round"/>
   </g>
   <g id="patch_16">
    <path d="M 589.930465 181.407957 
Q 585.872946 174.157599 582.361428 167.882885 
" clip-path="url(#p98514ecf66)" style="fill: none; stroke: #666666; stroke-linecap: round"/>
    <path d="M 582.569571 172.350175 
L 582.361428 167.882885 
L 586.060145 170.396744 
z
" clip-path="url(#p98514ecf66)" style="fill: #666666; stroke: #666666; stroke-linecap: round"/>
   </g>
   <g id="patch_17">
    <path d="M 573.354314 166.90899 
Q 561.007529 188.971393 549.206744 210.058151 
" clip-path="url(#p98514ecf66)" style="fill: none; stroke: #666666; stroke-linecap: round"/>
    <path d="M 552.905462 207.544292 
L 549.206744 210.058151 
L 549.414888 205.590862 
z
" clip-path="url(#p98514ecf66)" style="fill: #666666; stroke: #666666; stroke-linecap: round"/>
   </g>
   <g id="patch_18">
    <path d="M 551.872294 214.157182 
Q 569.296205 203.778951 585.759564 193.972856 
" clip-path="url(#p98514ecf66)" style="fill: none; stroke: #666666; stroke-linecap: round"/>
    <path d="M 581.29952 194.301501 
L 585.759564 193.972856 
L 583.346453 197.738078 
z
" clip-path="url(#p98514ecf66)" style="fill: #666666; stroke: #666666; stroke-linecap: round"/>
   </g>
   <g id="patch_19">
    <path d="M 540.202011 226.14866 
Q 536.144493 233.399018 532.632974 239.673731 
" clip-path="url(#p98514ecf66)" style="fill: none; stroke: #666666; stroke-linecap: round"/>
    <path d="M 536.331692 237.159872 
L 532.632974 239.673731 
L 532.841117 235.206442 
z
" clip-path="url(#p98514ecf66)" style="fill: #666666; stroke: #666666; stroke-linecap: round"/>
   </g>
   <g id="patch_20">
    <path d="M 523.62586 240.647627 
Q 519.568341 233.397268 516.056823 227.122555 
" clip-path="url(#p98514ecf66)" style="fill: none; stroke: #666666; stroke-linecap: round"/>
    <path d="M 516.264966 231.589844 
L 516.056823 227.122555 
L 519.755541 229.636414 
z
" clip-path="url(#p98514ecf66)" style="fill: #666666; stroke: #666666; stroke-linecap: round"/>
   </g>
   <g id="patch_21">
    <path d="M 503.84152 214.157182 
Q 486.417608 203.778951 469.95425 193.972856 
" clip-path="url(#p98514ecf66)" style="fill: none; stroke: #666666; stroke-linecap: round"/>
    <path d="M 472.36736 197.738078 
L 469.95425 193.972856 
L 474.414294 194.301501 
z
" clip-path="url(#p98514ecf66)" style="fill: #666666; stroke: #666666; stroke-linecap: round"/>
   </g>
   <g id="patch_22">
    <path d="M 465.783349 181.407957 
Q 469.840867 174.157599 473.352386 167.882885 
" clip-path="url(#p98514ecf66)" style="fill: none; stroke: #666666; stroke-linecap: round"/>
    <path d="M 469.653668 170.396744 
L 473.352386 167.882885 
L 473.144243 172.350175 
z
" clip-path="url(#p98514ecf66)" style="fill: #666666; stroke: #666666; stroke-linecap: round"/>
   </g>
   <g id="patch_23">
    <path d="M 457.321256 181.407957 
Q 428.399501 129.727831 400.023747 79.02335 
" clip-path="url(#p98514ecf66)" style="fill: none; stroke: #666666; stroke-linecap: round"/>
    <path d="M 400.231891 83.490639 
L 400.023747 79.02335 
L 403.722465 81.537209 
z
" clip-path="url(#p98514ecf66)" style="fill: #666666; stroke: #666666; stroke-linecap: round"/>
   </g>
   <g id="patch_24">
    <path d="M 482.3595 166.90899 
Q 494.706285 188.971393 506.507069 210.058151 
" clip-path="url(#p98514ecf66)" style="fill: none; stroke: #666666; stroke-linecap: round"/>
    <path d="M 506.298926 205.590862 
L 506.507069 210.058151 
L 502.808352 207.544292 
z
" clip-path="url(#p98514ecf66)" style="fill: #666666; stroke: #666666; stroke-linecap: round"/>
   </g>
   <g id="patch_25">
    <path d="M 391.01741 78.04813 
Q 353.807972 144.537474 317.144534 210.051173 
" clip-path="url(#p98514ecf66)" style="fill: none; stroke: #666666; stroke-linecap: round"/>
    <path d="M 320.843251 207.537314 
L 317.144534 210.051173 
L 317.352677 205.583884 
z
" clip-path="url(#p98514ecf66)" style="fill: #666666; stroke: #666666; stroke-linecap: round"/>
   </g>
   <g id="patch_26">
    <path d="M 308.135896 226.14866 
Q 304.078377 233.399018 300.566858 239.673731 
" clip-path="url(#p98514ecf66)" style="fill: none; stroke: #666666; stroke-linecap: round"/>
    <path d="M 304.265576 237.159872 
L 300.566858 239.673731 
L 300.775002 235.206442 
z
" clip-path="url(#p98514ecf66)" style="fill: #666666; stroke: #666666; stroke-linecap: round"/>
   </g>
   <g id="patch_27">
    <path d="M 250.293384 211.027792 
Q 254.350903 203.777433 257.862421 197.50272 
" clip-path="url(#p98514ecf66)" style="fill: none; stroke: #666666; stroke-linecap: round"/>
    <path d="M 254.163704 200.016579 
L 257.862421 197.50272 
L 257.654278 201.97001 
z
" clip-path="url(#p98514ecf66)" style="fill: #666666; stroke: #666666; stroke-linecap: round"/>
   </g>
   <g id="patch_28">
    <path d="M 266.869535 196.528825 
Q 279.21632 218.591228 291.017105 239.677986 
" clip-path="url(#p98514ecf66)" style="fill: none; stroke: #666666; stroke-linecap: round"/>
    <path d="M 290.808961 235.210696 
L 291.017105 239.677986 
L 287.318387 237.164127 
z
" clip-path="url(#p98514ecf66)" style="fill: #666666; stroke: #666666; stroke-linecap: round"/>
   </g>
   <g id="patch_29">
    <path d="M 287.633734 251.123221 
Q 254.351496 263.017591 222.122078 274.535705 
" clip-path="url(#p98514ecf66)" style="fill: none; stroke: #666666; stroke-linecap: round"/>
    <path d="M 226.561831 275.072914 
L 222.122078 274.535705 
L 225.215697 271.306228 
z
" clip-path="url(#p98514ecf66)" style="fill: #666666; stroke: #666666; stroke-linecap: round"/>
   </g>
   <g id="text_1">
    <g id="patch_30">
     <path d="M 374.822374 374.563211 
L 376.812804 360.336461 
Q 377.103775 358.256717 375.024031 357.965746 
L 368.31469 357.027058 
Q 366.234946 356.736086 365.943974 358.81583 
L 363.953545 373.04258 
Q 363.662573 375.122324 365.742317 375.413296 
L 372.451658 376.351983 
Q 374.531402 376.642955 374.822374 374.563211 
z
" clip-path="url(#p98514ecf66)" style="fill: #ffffff; stroke: #ffffff; stroke-linejoin: miter"/>
    </g>
    <g clip-path="url(#p98514ecf66)">
     <!-- true -->
     <g transform="translate(371.300891 374.070529) rotate(-82.035586) scale(0.07 -0.07)">
      <defs>
       <path id="DejaVuSans-74" d="M 1172 4494 
L 1172 3500 
L 2356 3500 
L 2356 3053 
L 1172 3053 
L 1172 1153 
Q 1172 725 1289 603 
Q 1406 481 1766 481 
L 2356 481 
L 2356 0 
L 1766 0 
Q 1100 0 847 248 
Q 594 497 594 1153 
L 594 3053 
L 172 3053 
L 172 3500 
L 594 3500 
L 594 4494 
L 1172 4494 
z
" transform="scale(0.015625)"/>
       <path id="DejaVuSans-72" d="M 2631 2963 
Q 2534 3019 2420 3045 
Q 2306 3072 2169 3072 
Q 1681 3072 1420 2755 
Q 1159 2438 1159 1844 
L 1159 0 
L 581 0 
L 581 3500 
L 1159 3500 
L 1159 2956 
Q 1341 3275 1631 3429 
Q 1922 3584 2338 3584 
Q 2397 3584 2469 3576 
Q 2541 3569 2628 3553 
L 2631 2963 
z
" transform="scale(0.015625)"/>
       <path id="DejaVuSans-75" d="M 544 1381 
L 544 3500 
L 1119 3500 
L 1119 1403 
Q 1119 906 1312 657 
Q 1506 409 1894 409 
Q 2359 409 2629 706 
Q 2900 1003 2900 1516 
L 2900 3500 
L 3475 3500 
L 3475 0 
L 2900 0 
L 2900 538 
Q 2691 219 2414 64 
Q 2138 -91 1772 -91 
Q 1169 -91 856 284 
Q 544 659 544 1381 
z
M 1991 3584 
L 1991 3584 
z
" transform="scale(0.015625)"/>
       <path id="DejaVuSans-65" d="M 3597 1894 
L 3597 1613 
L 953 1613 
Q 991 1019 1311 708 
Q 1631 397 2203 397 
Q 2534 397 2845 478 
Q 3156 559 3463 722 
L 3463 178 
Q 3153 47 2828 -22 
Q 2503 -91 2169 -91 
Q 1331 -91 842 396 
Q 353 884 353 1716 
Q 353 2575 817 3079 
Q 1281 3584 2069 3584 
Q 2775 3584 3186 3129 
Q 3597 2675 3597 1894 
z
M 3022 2063 
Q 3016 2534 2758 2815 
Q 2500 3097 2075 3097 
Q 1594 3097 1305 2825 
Q 1016 2553 972 2059 
L 3022 2063 
z
" transform="scale(0.015625)"/>
      </defs>
      <use xlink:href="#DejaVuSans-74"/>
      <use xlink:href="#DejaVuSans-72" transform="translate(39.208984 0)"/>
      <use xlink:href="#DejaVuSans-75" transform="translate(80.322266 0)"/>
      <use xlink:href="#DejaVuSans-65" transform="translate(143.701172 0)"/>
     </g>
    </g>
   </g>
   <g id="text_2">
    <g id="patch_31">
     <path d="M 395.25346 361.133204 
L 401.698167 376.487887 
Q 402.510899 378.424241 404.447253 377.61151 
L 410.694012 374.989604 
Q 412.630366 374.176872 411.817635 372.240518 
L 405.372927 356.885835 
Q 404.560196 354.949481 402.623842 355.762212 
L 396.377083 358.384118 
Q 394.440728 359.19685 395.25346 361.133204 
z
" clip-path="url(#p98514ecf66)" style="fill: #ffffff; stroke: #ffffff; stroke-linejoin: miter"/>
    </g>
    <g clip-path="url(#p98514ecf66)">
     <!-- false -->
     <g transform="translate(398.532151 359.757063) rotate(-292.768893) scale(0.07 -0.07)">
      <defs>
       <path id="DejaVuSans-66" d="M 2375 4863 
L 2375 4384 
L 1825 4384 
Q 1516 4384 1395 4259 
Q 1275 4134 1275 3809 
L 1275 3500 
L 2222 3500 
L 2222 3053 
L 1275 3053 
L 1275 0 
L 697 0 
L 697 3053 
L 147 3053 
L 147 3500 
L 697 3500 
L 697 3744 
Q 697 4328 969 4595 
Q 1241 4863 1831 4863 
L 2375 4863 
z
" transform="scale(0.015625)"/>
       <path id="DejaVuSans-61" d="M 2194 1759 
Q 1497 1759 1228 1600 
Q 959 1441 959 1056 
Q 959 750 1161 570 
Q 1363 391 1709 391 
Q 2188 391 2477 730 
Q 2766 1069 2766 1631 
L 2766 1759 
L 2194 1759 
z
M 3341 1997 
L 3341 0 
L 2766 0 
L 2766 531 
Q 2569 213 2275 61 
Q 1981 -91 1556 -91 
Q 1019 -91 701 211 
Q 384 513 384 1019 
Q 384 1609 779 1909 
Q 1175 2209 1959 2209 
L 2766 2209 
L 2766 2266 
Q 2766 2663 2505 2880 
Q 2244 3097 1772 3097 
Q 1472 3097 1187 3025 
Q 903 2953 641 2809 
L 641 3341 
Q 956 3463 1253 3523 
Q 1550 3584 1831 3584 
Q 2591 3584 2966 3190 
Q 3341 2797 3341 1997 
z
" transform="scale(0.015625)"/>
       <path id="DejaVuSans-6c" d="M 603 4863 
L 1178 4863 
L 1178 0 
L 603 0 
L 603 4863 
z
" transform="scale(0.015625)"/>
       <path id="DejaVuSans-73" d="M 2834 3397 
L 2834 2853 
Q 2591 2978 2328 3040 
Q 2066 3103 1784 3103 
Q 1356 3103 1142 2972 
Q 928 2841 928 2578 
Q 928 2378 1081 2264 
Q 1234 2150 1697 2047 
L 1894 2003 
Q 2506 1872 2764 1633 
Q 3022 1394 3022 966 
Q 3022 478 2636 193 
Q 2250 -91 1575 -91 
Q 1294 -91 989 -36 
Q 684 19 347 128 
L 347 722 
Q 666 556 975 473 
Q 1284 391 1588 391 
Q 1994 391 2212 530 
Q 2431 669 2431 922 
Q 2431 1156 2273 1281 
Q 2116 1406 1581 1522 
L 1381 1569 
Q 847 1681 609 1914 
Q 372 2147 372 2553 
Q 372 3047 722 3315 
Q 1072 3584 1716 3584 
Q 2034 3584 2315 3537 
Q 2597 3491 2834 3397 
z
" transform="scale(0.015625)"/>
      </defs>
      <use xlink:href="#DejaVuSans-66"/>
      <use xlink:href="#DejaVuSans-61" transform="translate(35.205078 0)"/>
      <use xlink:href="#DejaVuSans-6c" transform="translate(96.484375 0)"/>
      <use xlink:href="#DejaVuSans-73" transform="translate(124.267578 0)"/>
      <use xlink:href="#DejaVuSans-65" transform="translate(176.367188 0)"/>
     </g>
    </g>
   </g>
   <g id="text_3">
    <g id="patch_32">
     <path d="M 413.83649 520.273917 
L 442.966334 520.273917 
Q 445.066334 520.273917 445.066334 518.173917 
L 445.066334 511.399229 
Q 445.066334 509.299229 442.966334 509.299229 
L 413.83649 509.299229 
Q 411.73649 509.299229 411.73649 511.399229 
L 411.73649 518.173917 
Q 411.73649 520.273917 413.83649 520.273917 
z
" clip-path="url(#p98514ecf66)" style="fill: #ffffff; stroke: #ffffff; stroke-linejoin: miter"/>
    </g>
    <g clip-path="url(#p98514ecf66)">
     <!-- Approve -->
     <g transform="translate(413.83649 516.718135) scale(0.07 -0.07)">
      <defs>
       <path id="DejaVuSans-41" d="M 2188 4044 
L 1331 1722 
L 3047 1722 
L 2188 4044 
z
M 1831 4666 
L 2547 4666 
L 4325 0 
L 3669 0 
L 3244 1197 
L 1141 1197 
L 716 0 
L 50 0 
L 1831 4666 
z
" transform="scale(0.015625)"/>
       <path id="DejaVuSans-70" d="M 1159 525 
L 1159 -1331 
L 581 -1331 
L 581 3500 
L 1159 3500 
L 1159 2969 
Q 1341 3281 1617 3432 
Q 1894 3584 2278 3584 
Q 2916 3584 3314 3078 
Q 3713 2572 3713 1747 
Q 3713 922 3314 415 
Q 2916 -91 2278 -91 
Q 1894 -91 1617 61 
Q 1341 213 1159 525 
z
M 3116 1747 
Q 3116 2381 2855 2742 
Q 2594 3103 2138 3103 
Q 1681 3103 1420 2742 
Q 1159 2381 1159 1747 
Q 1159 1113 1420 752 
Q 1681 391 2138 391 
Q 2594 391 2855 752 
Q 3116 1113 3116 1747 
z
" transform="scale(0.015625)"/>
       <path id="DejaVuSans-6f" d="M 1959 3097 
Q 1497 3097 1228 2736 
Q 959 2375 959 1747 
Q 959 1119 1226 758 
Q 1494 397 1959 397 
Q 2419 397 2687 759 
Q 2956 1122 2956 1747 
Q 2956 2369 2687 2733 
Q 2419 3097 1959 3097 
z
M 1959 3584 
Q 2709 3584 3137 3096 
Q 3566 2609 3566 1747 
Q 3566 888 3137 398 
Q 2709 -91 1959 -91 
Q 1206 -91 779 398 
Q 353 888 353 1747 
Q 353 2609 779 3096 
Q 1206 3584 1959 3584 
z
" transform="scale(0.015625)"/>
       <path id="DejaVuSans-76" d="M 191 3500 
L 800 3500 
L 1894 563 
L 2988 3500 
L 3597 3500 
L 2284 0 
L 1503 0 
L 191 3500 
z
" transform="scale(0.015625)"/>
      </defs>
      <use xlink:href="#DejaVuSans-41"/>
      <use xlink:href="#DejaVuSans-70" transform="translate(68.408203 0)"/>
      <use xlink:href="#DejaVuSans-70" transform="translate(131.884766 0)"/>
      <use xlink:href="#DejaVuSans-72" transform="translate(195.361328 0)"/>
      <use xlink:href="#DejaVuSans-6f" transform="translate(234.224609 0)"/>
      <use xlink:href="#DejaVuSans-76" transform="translate(295.40625 0)"/>
      <use xlink:href="#DejaVuSans-65" transform="translate(354.585938 0)"/>
     </g>
    </g>
   </g>
   <g id="text_4">
    <g id="patch_33">
     <path d="M 187.380991 482.345618 
L 225.552086 468.704073 
Q 227.529596 467.997353 226.822875 466.019842 
L 224.542966 459.640312 
Q 223.836246 457.662802 221.858735 458.369523 
L 183.68764 472.011067 
Q 181.71013 472.717788 182.416851 474.695298 
L 184.69676 481.074828 
Q 185.403481 483.052338 187.380991 482.345618 
z
" clip-path="url(#p98514ecf66)" style="fill: #ffffff; stroke: #ffffff; stroke-linejoin: miter"/>
    </g>
    <g clip-path="url(#p98514ecf66)">
     <!-- Modify plan -->
     <g transform="translate(186.184351 478.99724) rotate(-19.665818) scale(0.07 -0.07)">
      <defs>
       <path id="DejaVuSans-4d" d="M 628 4666 
L 1569 4666 
L 2759 1491 
L 3956 4666 
L 4897 4666 
L 4897 0 
L 4281 0 
L 4281 4097 
L 3078 897 
L 2444 897 
L 1241 4097 
L 1241 0 
L 628 0 
L 628 4666 
z
" transform="scale(0.015625)"/>
       <path id="DejaVuSans-64" d="M 2906 2969 
L 2906 4863 
L 3481 4863 
L 3481 0 
L 2906 0 
L 2906 525 
Q 2725 213 2448 61 
Q 2172 -91 1784 -91 
Q 1150 -91 751 415 
Q 353 922 353 1747 
Q 353 2572 751 3078 
Q 1150 3584 1784 3584 
Q 2172 3584 2448 3432 
Q 2725 3281 2906 2969 
z
M 947 1747 
Q 947 1113 1208 752 
Q 1469 391 1925 391 
Q 2381 391 2643 752 
Q 2906 1113 2906 1747 
Q 2906 2381 2643 2742 
Q 2381 3103 1925 3103 
Q 1469 3103 1208 2742 
Q 947 2381 947 1747 
z
" transform="scale(0.015625)"/>
       <path id="DejaVuSans-69" d="M 603 3500 
L 1178 3500 
L 1178 0 
L 603 0 
L 603 3500 
z
M 603 4863 
L 1178 4863 
L 1178 4134 
L 603 4134 
L 603 4863 
z
" transform="scale(0.015625)"/>
       <path id="DejaVuSans-79" d="M 2059 -325 
Q 1816 -950 1584 -1140 
Q 1353 -1331 966 -1331 
L 506 -1331 
L 506 -850 
L 844 -850 
Q 1081 -850 1212 -737 
Q 1344 -625 1503 -206 
L 1606 56 
L 191 3500 
L 800 3500 
L 1894 763 
L 2988 3500 
L 3597 3500 
L 2059 -325 
z
" transform="scale(0.015625)"/>
       <path id="DejaVuSans-20" transform="scale(0.015625)"/>
       <path id="DejaVuSans-6e" d="M 3513 2113 
L 3513 0 
L 2938 0 
L 2938 2094 
Q 2938 2591 2744 2837 
Q 2550 3084 2163 3084 
Q 1697 3084 1428 2787 
Q 1159 2491 1159 1978 
L 1159 0 
L 581 0 
L 581 3500 
L 1159 3500 
L 1159 2956 
Q 1366 3272 1645 3428 
Q 1925 3584 2291 3584 
Q 2894 3584 3203 3211 
Q 3513 2838 3513 2113 
z
" transform="scale(0.015625)"/>
      </defs>
      <use xlink:href="#DejaVuSans-4d"/>
      <use xlink:href="#DejaVuSans-6f" transform="translate(86.279297 0)"/>
      <use xlink:href="#DejaVuSans-64" transform="translate(147.460938 0)"/>
      <use xlink:href="#DejaVuSans-69" transform="translate(210.9375 0)"/>
      <use xlink:href="#DejaVuSans-66" transform="translate(238.720703 0)"/>
      <use xlink:href="#DejaVuSans-79" transform="translate(272.175781 0)"/>
      <use xlink:href="#DejaVuSans-20" transform="translate(331.355469 0)"/>
      <use xlink:href="#DejaVuSans-70" transform="translate(363.142578 0)"/>
      <use xlink:href="#DejaVuSans-6c" transform="translate(426.619141 0)"/>
      <use xlink:href="#DejaVuSans-61" transform="translate(454.402344 0)"/>
      <use xlink:href="#DejaVuSans-6e" transform="translate(515.681641 0)"/>
     </g>
    </g>
   </g>
   <g id="text_5">
    <g id="patch_34">
     <path d="M 145.604198 409.332655 
L 157.185446 388.638185 
Q 158.210997 386.805633 156.378446 385.780082 
L 150.466558 382.471612 
Q 148.634006 381.446061 147.608455 383.278612 
L 136.027207 403.973082 
Q 135.001656 405.805634 136.834208 406.831185 
L 142.746095 410.139655 
Q 144.578647 411.165206 145.604198 409.332655 
z
" clip-path="url(#p98514ecf66)" style="fill: #ffffff; stroke: #ffffff; stroke-linejoin: miter"/>
    </g>
    <g clip-path="url(#p98514ecf66)">
     <!-- Cancel -->
     <g transform="translate(142.501268 407.596162) rotate(-60.76731) scale(0.07 -0.07)">
      <defs>
       <path id="DejaVuSans-43" d="M 4122 4306 
L 4122 3641 
Q 3803 3938 3442 4084 
Q 3081 4231 2675 4231 
Q 1875 4231 1450 3742 
Q 1025 3253 1025 2328 
Q 1025 1406 1450 917 
Q 1875 428 2675 428 
Q 3081 428 3442 575 
Q 3803 722 4122 1019 
L 4122 359 
Q 3791 134 3420 21 
Q 3050 -91 2638 -91 
Q 1578 -91 968 557 
Q 359 1206 359 2328 
Q 359 3453 968 4101 
Q 1578 4750 2638 4750 
Q 3056 4750 3426 4639 
Q 3797 4528 4122 4306 
z
" transform="scale(0.015625)"/>
       <path id="DejaVuSans-63" d="M 3122 3366 
L 3122 2828 
Q 2878 2963 2633 3030 
Q 2388 3097 2138 3097 
Q 1578 3097 1268 2742 
Q 959 2388 959 1747 
Q 959 1106 1268 751 
Q 1578 397 2138 397 
Q 2388 397 2633 464 
Q 2878 531 3122 666 
L 3122 134 
Q 2881 22 2623 -34 
Q 2366 -91 2075 -91 
Q 1284 -91 818 406 
Q 353 903 353 1747 
Q 353 2603 823 3093 
Q 1294 3584 2113 3584 
Q 2378 3584 2631 3529 
Q 2884 3475 3122 3366 
z
" transform="scale(0.015625)"/>
      </defs>
      <use xlink:href="#DejaVuSans-43"/>
      <use xlink:href="#DejaVuSans-61" transform="translate(69.824219 0)"/>
      <use xlink:href="#DejaVuSans-6e" transform="translate(131.103516 0)"/>
      <use xlink:href="#DejaVuSans-63" transform="translate(194.482422 0)"/>
      <use xlink:href="#DejaVuSans-65" transform="translate(249.462891 0)"/>
      <use xlink:href="#DejaVuSans-6c" transform="translate(310.986328 0)"/>
     </g>
    </g>
   </g>
   <g id="text_6">
    <g id="patch_35">
     <path d="M 577.558989 266.558852 
L 591.477957 270.111956 
Q 593.512708 270.631368 594.03212 268.596617 
L 595.707765 262.032426 
Q 596.227177 259.997676 594.192426 259.478263 
L 580.273459 255.92516 
Q 578.238708 255.405747 577.719296 257.440498 
L 576.043651 264.004689 
Q 575.524238 266.03944 577.558989 266.558852 
z
" clip-path="url(#p98514ecf66)" style="fill: #ffffff; stroke: #ffffff; stroke-linejoin: miter"/>
    </g>
    <g clip-path="url(#p98514ecf66)">
     <!-- true -->
     <g transform="translate(578.438473 263.113553) rotate(-345.679888) scale(0.07 -0.07)">
      <use xlink:href="#DejaVuSans-74"/>
      <use xlink:href="#DejaVuSans-72" transform="translate(39.208984 0)"/>
      <use xlink:href="#DejaVuSans-75" transform="translate(80.322266 0)"/>
      <use xlink:href="#DejaVuSans-65" transform="translate(143.701172 0)"/>
     </g>
    </g>
   </g>
   <g id="text_7">
    <g id="patch_36">
     <path d="M 610.170346 228.810813 
L 618.302645 243.342374 
Q 619.328196 245.174926 621.160747 244.149375 
L 627.072635 240.840905 
Q 628.905186 239.815354 627.879635 237.982802 
L 619.747336 223.451241 
Q 618.721785 221.61869 616.889234 222.644241 
L 610.977346 225.952711 
Q 609.144795 226.978262 610.170346 228.810813 
z
" clip-path="url(#p98514ecf66)" style="fill: #ffffff; stroke: #ffffff; stroke-linejoin: miter"/>
    </g>
    <g clip-path="url(#p98514ecf66)">
     <!-- false -->
     <g transform="translate(613.273275 227.074321) rotate(-299.23269) scale(0.07 -0.07)">
      <use xlink:href="#DejaVuSans-66"/>
      <use xlink:href="#DejaVuSans-61" transform="translate(35.205078 0)"/>
      <use xlink:href="#DejaVuSans-6c" transform="translate(96.484375 0)"/>
      <use xlink:href="#DejaVuSans-73" transform="translate(124.267578 0)"/>
      <use xlink:href="#DejaVuSans-65" transform="translate(176.367188 0)"/>
     </g>
    </g>
   </g>
   <g id="text_8">
    <g id="patch_37">
     <path d="M 565.933324 212.168977 
L 578.2752 204.817766 
Q 580.079403 203.743126 579.004763 201.938923 
L 575.537929 196.118489 
Q 574.463289 194.314286 572.659086 195.388926 
L 560.31721 202.740137 
Q 558.513007 203.814777 559.587647 205.61898 
L 563.054481 211.439414 
Q 564.129121 213.243617 565.933324 212.168977 
z
" clip-path="url(#p98514ecf66)" style="fill: #ffffff; stroke: #ffffff; stroke-linejoin: miter"/>
    </g>
    <g clip-path="url(#p98514ecf66)">
     <!-- true -->
     <g transform="translate(564.113712 209.114048) rotate(-30.779361) scale(0.07 -0.07)">
      <use xlink:href="#DejaVuSans-74"/>
      <use xlink:href="#DejaVuSans-72" transform="translate(39.208984 0)"/>
      <use xlink:href="#DejaVuSans-75" transform="translate(80.322266 0)"/>
      <use xlink:href="#DejaVuSans-65" transform="translate(143.701172 0)"/>
     </g>
    </g>
   </g>
   <g id="text_9">
    <g id="patch_38">
     <path d="M 536.866838 243.344585 
L 544.999137 228.813024 
Q 546.024688 226.980472 544.192137 225.954921 
L 538.280249 222.646451 
Q 536.447698 221.6209 535.422147 223.453451 
L 527.289848 237.985012 
Q 526.264297 239.817564 528.096848 240.843115 
L 534.008736 244.151585 
Q 535.841287 245.177136 536.866838 243.344585 
z
" clip-path="url(#p98514ecf66)" style="fill: #ffffff; stroke: #ffffff; stroke-linejoin: miter"/>
    </g>
    <g clip-path="url(#p98514ecf66)">
     <!-- false -->
     <g transform="translate(533.763909 241.608092) rotate(-60.76731) scale(0.07 -0.07)">
      <use xlink:href="#DejaVuSans-66"/>
      <use xlink:href="#DejaVuSans-61" transform="translate(35.205078 0)"/>
      <use xlink:href="#DejaVuSans-6c" transform="translate(96.484375 0)"/>
      <use xlink:href="#DejaVuSans-73" transform="translate(124.267578 0)"/>
      <use xlink:href="#DejaVuSans-65" transform="translate(176.367188 0)"/>
     </g>
    </g>
   </g>
   <g id="text_10">
    <g id="patch_39">
     <path d="M 471.121658 183.105284 
L 478.137068 170.569486 
Q 479.162619 168.736934 477.330067 167.711383 
L 471.41818 164.402913 
Q 469.585628 163.377362 468.560077 165.209914 
L 461.544667 177.745711 
Q 460.519116 179.578263 462.351668 180.603814 
L 468.263555 183.912284 
Q 470.096107 184.937835 471.121658 183.105284 
z
" clip-path="url(#p98514ecf66)" style="fill: #ffffff; stroke: #ffffff; stroke-linejoin: miter"/>
    </g>
    <g clip-path="url(#p98514ecf66)">
     <!-- true -->
     <g transform="translate(468.018728 181.368791) rotate(-60.76731) scale(0.07 -0.07)">
      <use xlink:href="#DejaVuSans-74"/>
      <use xlink:href="#DejaVuSans-72" transform="translate(39.208984 0)"/>
      <use xlink:href="#DejaVuSans-75" transform="translate(80.322266 0)"/>
      <use xlink:href="#DejaVuSans-65" transform="translate(143.701172 0)"/>
     </g>
    </g>
   </g>
   <g id="text_11">
    <g id="patch_40">
     <path d="M 419.544857 125.141836 
L 427.677156 139.673397 
Q 428.702707 141.505949 430.535258 140.480398 
L 436.447146 137.171928 
Q 438.279697 136.146377 437.254146 134.313825 
L 429.121847 119.782264 
Q 428.096296 117.949713 426.263745 118.975264 
L 420.351857 122.283734 
Q 418.519306 123.309285 419.544857 125.141836 
z
" clip-path="url(#p98514ecf66)" style="fill: #ffffff; stroke: #ffffff; stroke-linejoin: miter"/>
    </g>
    <g clip-path="url(#p98514ecf66)">
     <!-- false -->
     <g transform="translate(422.647786 123.405343) rotate(-299.23269) scale(0.07 -0.07)">
      <use xlink:href="#DejaVuSans-66"/>
      <use xlink:href="#DejaVuSans-61" transform="translate(35.205078 0)"/>
      <use xlink:href="#DejaVuSans-6c" transform="translate(96.484375 0)"/>
      <use xlink:href="#DejaVuSans-73" transform="translate(124.267578 0)"/>
      <use xlink:href="#DejaVuSans-65" transform="translate(176.367188 0)"/>
     </g>
    </g>
   </g>
   <g id="PathCollection_1">
    <defs>
     <path id="C0_0_8caf811b9e" d="M 0 22.36068 
C 5.930122 22.36068 11.618159 20.004617 15.811388 15.811388 
C 20.004617 11.618159 22.36068 5.930122 22.36068 -0 
C 22.36068 -5.930122 20.004617 -11.618159 15.811388 -15.811388 
C 11.618159 -20.004617 5.930122 -22.36068 0 -22.36068 
C -5.930122 -22.36068 -11.618159 -20.004617 -15.811388 -15.811388 
C -20.004617 -11.618159 -22.36068 -5.930122 -22.36068 0 
C -22.36068 5.930122 -20.004617 11.618159 -15.811388 15.811388 
C -11.618159 20.004617 -5.930122 22.36068 0 22.36068 
z
"/>
    </defs>
    <g clip-path="url(#p98514ecf66)">
     <use xlink:href="#C0_0_8caf811b9e" x="395.247698" y="485.166738" style="fill: #e3f2fd; stroke: #e3f2fd"/>
    </g>
    <g clip-path="url(#p98514ecf66)">
     <use xlink:href="#C0_0_8caf811b9e" x="378.671547" y="307.44773" style="fill: #fff3e0; stroke: #fff3e0"/>
    </g>
    <g clip-path="url(#p98514ecf66)">
     <use xlink:href="#C0_0_8caf811b9e" x="428.4" y="425.927069" style="fill: #e3f2fd; stroke: #e3f2fd"/>
    </g>
    <g clip-path="url(#p98514ecf66)">
     <use xlink:href="#C0_0_8caf811b9e" x="362.095396" y="425.927069" style="fill: #e3f2fd; stroke: #e3f2fd"/>
    </g>
    <g clip-path="url(#p98514ecf66)">
     <use xlink:href="#C0_0_8caf811b9e" x="345.519244" y="455.546903" style="fill: #ffebee; stroke: #ffebee"/>
    </g>
    <g clip-path="url(#p98514ecf66)">
     <use xlink:href="#C0_0_8caf811b9e" x="80.300826" y="514.786573" style="fill: #fff3e0; stroke: #fff3e0"/>
    </g>
    <g clip-path="url(#p98514ecf66)">
     <use xlink:href="#C0_0_8caf811b9e" x="328.943093" y="425.927069" style="fill: #e3f2fd; stroke: #e3f2fd"/>
    </g>
    <g clip-path="url(#p98514ecf66)">
     <use xlink:href="#C0_0_8caf811b9e" x="776.499174" y="514.786573" style="fill: #e3f2fd; stroke: #e3f2fd"/>
    </g>
    <g clip-path="url(#p98514ecf66)">
     <use xlink:href="#C0_0_8caf811b9e" x="743.346871" y="455.546903" style="fill: #e8f5e9; stroke: #e8f5e9"/>
    </g>
    <g clip-path="url(#p98514ecf66)">
     <use xlink:href="#C0_0_8caf811b9e" x="643.889965" y="277.827895" style="fill: #fff3e0; stroke: #fff3e0"/>
    </g>
    <g clip-path="url(#p98514ecf66)">
     <use xlink:href="#C0_0_8caf811b9e" x="594.161511" y="188.968391" style="fill: #e3f2fd; stroke: #e3f2fd"/>
    </g>
    <g clip-path="url(#p98514ecf66)">
     <use xlink:href="#C0_0_8caf811b9e" x="577.58536" y="159.348556" style="fill: #e8f5e9; stroke: #e8f5e9"/>
    </g>
    <g clip-path="url(#p98514ecf66)">
     <use xlink:href="#C0_0_8caf811b9e" x="544.433058" y="218.588226" style="fill: #fff3e0; stroke: #fff3e0"/>
    </g>
    <g clip-path="url(#p98514ecf66)">
     <use xlink:href="#C0_0_8caf811b9e" x="527.856907" y="248.20806" style="fill: #e3f2fd; stroke: #e3f2fd"/>
    </g>
    <g clip-path="url(#p98514ecf66)">
     <use xlink:href="#C0_0_8caf811b9e" x="511.280756" y="218.588226" style="fill: #e3f2fd; stroke: #e3f2fd"/>
    </g>
    <g clip-path="url(#p98514ecf66)">
     <use xlink:href="#C0_0_8caf811b9e" x="461.552302" y="188.968391" style="fill: #fff3e0; stroke: #fff3e0"/>
    </g>
    <g clip-path="url(#p98514ecf66)">
     <use xlink:href="#C0_0_8caf811b9e" x="478.128453" y="159.348556" style="fill: #e3f2fd; stroke: #e3f2fd"/>
    </g>
    <g clip-path="url(#p98514ecf66)">
     <use xlink:href="#C0_0_8caf811b9e" x="395.247698" y="70.489052" style="fill: #ffebee; stroke: #ffebee"/>
    </g>
    <g clip-path="url(#p98514ecf66)">
     <use xlink:href="#C0_0_8caf811b9e" x="312.366942" y="218.588226" style="fill: #f3e5f5; stroke: #f3e5f5"/>
    </g>
    <g clip-path="url(#p98514ecf66)">
     <use xlink:href="#C0_0_8caf811b9e" x="246.062338" y="218.588226" style="fill: #e3f2fd; stroke: #e3f2fd"/>
    </g>
    <g clip-path="url(#p98514ecf66)">
     <use xlink:href="#C0_0_8caf811b9e" x="262.638489" y="188.968391" style="fill: #e8f5e9; stroke: #e8f5e9"/>
    </g>
    <g clip-path="url(#p98514ecf66)">
     <use xlink:href="#C0_0_8caf811b9e" x="295.790791" y="248.20806" style="fill: #eceff1; stroke: #eceff1"/>
    </g>
    <g clip-path="url(#p98514ecf66)">
     <use xlink:href="#C0_0_8caf811b9e" x="212.910035" y="277.827895" style="fill: #eceff1; stroke: #eceff1"/>
    </g>
   </g>
   <g id="text_12">
    <g clip-path="url(#p98514ecf66)">
     <!-- analyze_request -->
     <g transform="translate(362.567698 487.262988) scale(0.08 -0.08)">
      <defs>
       <path id="DejaVuSans-7a" d="M 353 3500 
L 3084 3500 
L 3084 2975 
L 922 459 
L 3084 459 
L 3084 0 
L 275 0 
L 275 525 
L 2438 3041 
L 353 3041 
L 353 3500 
z
" transform="scale(0.015625)"/>
       <path id="DejaVuSans-5f" d="M 3263 -1063 
L 3263 -1509 
L -63 -1509 
L -63 -1063 
L 3263 -1063 
z
" transform="scale(0.015625)"/>
       <path id="DejaVuSans-71" d="M 947 1747 
Q 947 1113 1208 752 
Q 1469 391 1925 391 
Q 2381 391 2643 752 
Q 2906 1113 2906 1747 
Q 2906 2381 2643 2742 
Q 2381 3103 1925 3103 
Q 1469 3103 1208 2742 
Q 947 2381 947 1747 
z
M 2906 525 
Q 2725 213 2448 61 
Q 2172 -91 1784 -91 
Q 1150 -91 751 415 
Q 353 922 353 1747 
Q 353 2572 751 3078 
Q 1150 3584 1784 3584 
Q 2172 3584 2448 3432 
Q 2725 3281 2906 2969 
L 2906 3500 
L 3481 3500 
L 3481 -1331 
L 2906 -1331 
L 2906 525 
z
" transform="scale(0.015625)"/>
      </defs>
      <use xlink:href="#DejaVuSans-61"/>
      <use xlink:href="#DejaVuSans-6e" transform="translate(61.279297 0)"/>
      <use xlink:href="#DejaVuSans-61" transform="translate(124.658203 0)"/>
      <use xlink:href="#DejaVuSans-6c" transform="translate(185.9375 0)"/>
      <use xlink:href="#DejaVuSans-79" transform="translate(213.720703 0)"/>
      <use xlink:href="#DejaVuSans-7a" transform="translate(272.900391 0)"/>
      <use xlink:href="#DejaVuSans-65" transform="translate(325.390625 0)"/>
      <use xlink:href="#DejaVuSans-5f" transform="translate(386.914062 0)"/>
      <use xlink:href="#DejaVuSans-72" transform="translate(436.914062 0)"/>
      <use xlink:href="#DejaVuSans-65" transform="translate(475.777344 0)"/>
      <use xlink:href="#DejaVuSans-71" transform="translate(537.300781 0)"/>
      <use xlink:href="#DejaVuSans-75" transform="translate(600.777344 0)"/>
      <use xlink:href="#DejaVuSans-65" transform="translate(664.15625 0)"/>
      <use xlink:href="#DejaVuSans-73" transform="translate(725.679688 0)"/>
      <use xlink:href="#DejaVuSans-74" transform="translate(777.779297 0)"/>
     </g>
    </g>
   </g>
   <g id="text_13">
    <g clip-path="url(#p98514ecf66)">
     <!-- check_complexity -->
     <g transform="translate(342.960922 309.54398) scale(0.08 -0.08)">
      <defs>
       <path id="DejaVuSans-68" d="M 3513 2113 
L 3513 0 
L 2938 0 
L 2938 2094 
Q 2938 2591 2744 2837 
Q 2550 3084 2163 3084 
Q 1697 3084 1428 2787 
Q 1159 2491 1159 1978 
L 1159 0 
L 581 0 
L 581 4863 
L 1159 4863 
L 1159 2956 
Q 1366 3272 1645 3428 
Q 1925 3584 2291 3584 
Q 2894 3584 3203 3211 
Q 3513 2838 3513 2113 
z
" transform="scale(0.015625)"/>
       <path id="DejaVuSans-6b" d="M 581 4863 
L 1159 4863 
L 1159 1991 
L 2875 3500 
L 3609 3500 
L 1753 1863 
L 3688 0 
L 2938 0 
L 1159 1709 
L 1159 0 
L 581 0 
L 581 4863 
z
" transform="scale(0.015625)"/>
       <path id="DejaVuSans-6d" d="M 3328 2828 
Q 3544 3216 3844 3400 
Q 4144 3584 4550 3584 
Q 5097 3584 5394 3201 
Q 5691 2819 5691 2113 
L 5691 0 
L 5113 0 
L 5113 2094 
Q 5113 2597 4934 2840 
Q 4756 3084 4391 3084 
Q 3944 3084 3684 2787 
Q 3425 2491 3425 1978 
L 3425 0 
L 2847 0 
L 2847 2094 
Q 2847 2600 2669 2842 
Q 2491 3084 2119 3084 
Q 1678 3084 1418 2786 
Q 1159 2488 1159 1978 
L 1159 0 
L 581 0 
L 581 3500 
L 1159 3500 
L 1159 2956 
Q 1356 3278 1631 3431 
Q 1906 3584 2284 3584 
Q 2666 3584 2933 3390 
Q 3200 3197 3328 2828 
z
" transform="scale(0.015625)"/>
       <path id="DejaVuSans-78" d="M 3513 3500 
L 2247 1797 
L 3578 0 
L 2900 0 
L 1881 1375 
L 863 0 
L 184 0 
L 1544 1831 
L 300 3500 
L 978 3500 
L 1906 2253 
L 2834 3500 
L 3513 3500 
z
" transform="scale(0.015625)"/>
      </defs>
      <use xlink:href="#DejaVuSans-63"/>
      <use xlink:href="#DejaVuSans-68" transform="translate(54.980469 0)"/>
      <use xlink:href="#DejaVuSans-65" transform="translate(118.359375 0)"/>
      <use xlink:href="#DejaVuSans-63" transform="translate(179.882812 0)"/>
      <use xlink:href="#DejaVuSans-6b" transform="translate(234.863281 0)"/>
      <use xlink:href="#DejaVuSans-5f" transform="translate(292.773438 0)"/>
      <use xlink:href="#DejaVuSans-63" transform="translate(342.773438 0)"/>
      <use xlink:href="#DejaVuSans-6f" transform="translate(397.753906 0)"/>
      <use xlink:href="#DejaVuSans-6d" transform="translate(458.935547 0)"/>
      <use xlink:href="#DejaVuSans-70" transform="translate(556.347656 0)"/>
      <use xlink:href="#DejaVuSans-6c" transform="translate(619.824219 0)"/>
      <use xlink:href="#DejaVuSans-65" transform="translate(647.607422 0)"/>
      <use xlink:href="#DejaVuSans-78" transform="translate(707.380859 0)"/>
      <use xlink:href="#DejaVuSans-69" transform="translate(766.560547 0)"/>
      <use xlink:href="#DejaVuSans-74" transform="translate(794.34375 0)"/>
      <use xlink:href="#DejaVuSans-79" transform="translate(833.552734 0)"/>
     </g>
    </g>
   </g>
   <g id="text_14">
    <g clip-path="url(#p98514ecf66)">
     <!-- quick_implement -->
     <g transform="translate(394.11875 428.023319) scale(0.08 -0.08)">
      <use xlink:href="#DejaVuSans-71"/>
      <use xlink:href="#DejaVuSans-75" transform="translate(63.476562 0)"/>
      <use xlink:href="#DejaVuSans-69" transform="translate(126.855469 0)"/>
      <use xlink:href="#DejaVuSans-63" transform="translate(154.638672 0)"/>
      <use xlink:href="#DejaVuSans-6b" transform="translate(209.619141 0)"/>
      <use xlink:href="#DejaVuSans-5f" transform="translate(267.529297 0)"/>
      <use xlink:href="#DejaVuSans-69" transform="translate(317.529297 0)"/>
      <use xlink:href="#DejaVuSans-6d" transform="translate(345.3125 0)"/>
      <use xlink:href="#DejaVuSans-70" transform="translate(442.724609 0)"/>
      <use xlink:href="#DejaVuSans-6c" transform="translate(506.201172 0)"/>
      <use xlink:href="#DejaVuSans-65" transform="translate(533.984375 0)"/>
      <use xlink:href="#DejaVuSans-6d" transform="translate(595.507812 0)"/>
      <use xlink:href="#DejaVuSans-65" transform="translate(692.919922 0)"/>
      <use xlink:href="#DejaVuSans-6e" transform="translate(754.443359 0)"/>
      <use xlink:href="#DejaVuSans-74" transform="translate(817.822266 0)"/>
     </g>
    </g>
   </g>
   <g id="text_15">
    <g clip-path="url(#p98514ecf66)">
     <!-- create_plan -->
     <g transform="translate(338.762896 428.023319) scale(0.08 -0.08)">
      <use xlink:href="#DejaVuSans-63"/>
      <use xlink:href="#DejaVuSans-72" transform="translate(54.980469 0)"/>
      <use xlink:href="#DejaVuSans-65" transform="translate(93.84375 0)"/>
      <use xlink:href="#DejaVuSans-61" transform="translate(155.367188 0)"/>
      <use xlink:href="#DejaVuSans-74" transform="translate(216.646484 0)"/>
      <use xlink:href="#DejaVuSans-65" transform="translate(255.855469 0)"/>
      <use xlink:href="#DejaVuSans-5f" transform="translate(317.378906 0)"/>
      <use xlink:href="#DejaVuSans-70" transform="translate(367.378906 0)"/>
      <use xlink:href="#DejaVuSans-6c" transform="translate(430.855469 0)"/>
      <use xlink:href="#DejaVuSans-61" transform="translate(458.638672 0)"/>
      <use xlink:href="#DejaVuSans-6e" transform="translate(519.917969 0)"/>
     </g>
    </g>
   </g>
   <g id="text_16">
    <g clip-path="url(#p98514ecf66)">
     <!-- review_plan -->
     <g transform="translate(321.655494 457.643153) scale(0.08 -0.08)">
      <defs>
       <path id="DejaVuSans-77" d="M 269 3500 
L 844 3500 
L 1563 769 
L 2278 3500 
L 2956 3500 
L 3675 769 
L 4391 3500 
L 4966 3500 
L 4050 0 
L 3372 0 
L 2619 2869 
L 1863 0 
L 1184 0 
L 269 3500 
z
" transform="scale(0.015625)"/>
      </defs>
      <use xlink:href="#DejaVuSans-72"/>
      <use xlink:href="#DejaVuSans-65" transform="translate(38.863281 0)"/>
      <use xlink:href="#DejaVuSans-76" transform="translate(100.386719 0)"/>
      <use xlink:href="#DejaVuSans-69" transform="translate(159.566406 0)"/>
      <use xlink:href="#DejaVuSans-65" transform="translate(187.349609 0)"/>
      <use xlink:href="#DejaVuSans-77" transform="translate(248.873047 0)"/>
      <use xlink:href="#DejaVuSans-5f" transform="translate(330.660156 0)"/>
      <use xlink:href="#DejaVuSans-70" transform="translate(380.660156 0)"/>
      <use xlink:href="#DejaVuSans-6c" transform="translate(444.136719 0)"/>
      <use xlink:href="#DejaVuSans-61" transform="translate(471.919922 0)"/>
      <use xlink:href="#DejaVuSans-6e" transform="translate(533.199219 0)"/>
     </g>
    </g>
   </g>
   <g id="text_17">
    <g clip-path="url(#p98514ecf66)">
     <!-- handle_plan_review -->
     <g transform="translate(40.803951 516.882823) scale(0.08 -0.08)">
      <use xlink:href="#DejaVuSans-68"/>
      <use xlink:href="#DejaVuSans-61" transform="translate(63.378906 0)"/>
      <use xlink:href="#DejaVuSans-6e" transform="translate(124.658203 0)"/>
      <use xlink:href="#DejaVuSans-64" transform="translate(188.037109 0)"/>
      <use xlink:href="#DejaVuSans-6c" transform="translate(251.513672 0)"/>
      <use xlink:href="#DejaVuSans-65" transform="translate(279.296875 0)"/>
      <use xlink:href="#DejaVuSans-5f" transform="translate(340.820312 0)"/>
      <use xlink:href="#DejaVuSans-70" transform="translate(390.820312 0)"/>
      <use xlink:href="#DejaVuSans-6c" transform="translate(454.296875 0)"/>
      <use xlink:href="#DejaVuSans-61" transform="translate(482.080078 0)"/>
      <use xlink:href="#DejaVuSans-6e" transform="translate(543.359375 0)"/>
      <use xlink:href="#DejaVuSans-5f" transform="translate(606.738281 0)"/>
      <use xlink:href="#DejaVuSans-72" transform="translate(656.738281 0)"/>
      <use xlink:href="#DejaVuSans-65" transform="translate(695.601562 0)"/>
      <use xlink:href="#DejaVuSans-76" transform="translate(757.125 0)"/>
      <use xlink:href="#DejaVuSans-69" transform="translate(816.304688 0)"/>
      <use xlink:href="#DejaVuSans-65" transform="translate(844.087891 0)"/>
      <use xlink:href="#DejaVuSans-77" transform="translate(905.611328 0)"/>
     </g>
    </g>
   </g>
   <g id="text_18">
    <g clip-path="url(#p98514ecf66)">
     <!-- revise_plan -->
     <g transform="translate(306.266843 428.023319) scale(0.08 -0.08)">
      <use xlink:href="#DejaVuSans-72"/>
      <use xlink:href="#DejaVuSans-65" transform="translate(38.863281 0)"/>
      <use xlink:href="#DejaVuSans-76" transform="translate(100.386719 0)"/>
      <use xlink:href="#DejaVuSans-69" transform="translate(159.566406 0)"/>
      <use xlink:href="#DejaVuSans-73" transform="translate(187.349609 0)"/>
      <use xlink:href="#DejaVuSans-65" transform="translate(239.449219 0)"/>
      <use xlink:href="#DejaVuSans-5f" transform="translate(300.972656 0)"/>
      <use xlink:href="#DejaVuSans-70" transform="translate(350.972656 0)"/>
      <use xlink:href="#DejaVuSans-6c" transform="translate(414.449219 0)"/>
      <use xlink:href="#DejaVuSans-61" transform="translate(442.232422 0)"/>
      <use xlink:href="#DejaVuSans-6e" transform="translate(503.511719 0)"/>
     </g>
    </g>
   </g>
   <g id="text_19">
    <g clip-path="url(#p98514ecf66)">
     <!-- implement_feature -->
     <g transform="translate(738.479799 516.882823) scale(0.08 -0.08)">
      <use xlink:href="#DejaVuSans-69"/>
      <use xlink:href="#DejaVuSans-6d" transform="translate(27.783203 0)"/>
      <use xlink:href="#DejaVuSans-70" transform="translate(125.195312 0)"/>
      <use xlink:href="#DejaVuSans-6c" transform="translate(188.671875 0)"/>
      <use xlink:href="#DejaVuSans-65" transform="translate(216.455078 0)"/>
      <use xlink:href="#DejaVuSans-6d" transform="translate(277.978516 0)"/>
      <use xlink:href="#DejaVuSans-65" transform="translate(375.390625 0)"/>
      <use xlink:href="#DejaVuSans-6e" transform="translate(436.914062 0)"/>
      <use xlink:href="#DejaVuSans-74" transform="translate(500.292969 0)"/>
      <use xlink:href="#DejaVuSans-5f" transform="translate(539.501953 0)"/>
      <use xlink:href="#DejaVuSans-66" transform="translate(589.501953 0)"/>
      <use xlink:href="#DejaVuSans-65" transform="translate(624.707031 0)"/>
      <use xlink:href="#DejaVuSans-61" transform="translate(686.230469 0)"/>
      <use xlink:href="#DejaVuSans-74" transform="translate(747.509766 0)"/>
      <use xlink:href="#DejaVuSans-75" transform="translate(786.71875 0)"/>
      <use xlink:href="#DejaVuSans-72" transform="translate(850.097656 0)"/>
      <use xlink:href="#DejaVuSans-65" transform="translate(888.960938 0)"/>
     </g>
    </g>
   </g>
   <g id="text_20">
    <g clip-path="url(#p98514ecf66)">
     <!-- run_tests -->
     <g transform="translate(724.867496 457.531903) scale(0.08 -0.08)">
      <use xlink:href="#DejaVuSans-72"/>
      <use xlink:href="#DejaVuSans-75" transform="translate(41.113281 0)"/>
      <use xlink:href="#DejaVuSans-6e" transform="translate(104.492188 0)"/>
      <use xlink:href="#DejaVuSans-5f" transform="translate(167.871094 0)"/>
      <use xlink:href="#DejaVuSans-74" transform="translate(217.871094 0)"/>
      <use xlink:href="#DejaVuSans-65" transform="translate(257.080078 0)"/>
      <use xlink:href="#DejaVuSans-73" transform="translate(318.603516 0)"/>
      <use xlink:href="#DejaVuSans-74" transform="translate(370.703125 0)"/>
      <use xlink:href="#DejaVuSans-73" transform="translate(409.912109 0)"/>
     </g>
    </g>
   </g>
   <g id="text_21">
    <g clip-path="url(#p98514ecf66)">
     <!-- check_tests -->
     <g transform="translate(620.413715 279.924145) scale(0.08 -0.08)">
      <use xlink:href="#DejaVuSans-63"/>
      <use xlink:href="#DejaVuSans-68" transform="translate(54.980469 0)"/>
      <use xlink:href="#DejaVuSans-65" transform="translate(118.359375 0)"/>
      <use xlink:href="#DejaVuSans-63" transform="translate(179.882812 0)"/>
      <use xlink:href="#DejaVuSans-6b" transform="translate(234.863281 0)"/>
      <use xlink:href="#DejaVuSans-5f" transform="translate(292.773438 0)"/>
      <use xlink:href="#DejaVuSans-74" transform="translate(342.773438 0)"/>
      <use xlink:href="#DejaVuSans-65" transform="translate(381.982422 0)"/>
      <use xlink:href="#DejaVuSans-73" transform="translate(443.505859 0)"/>
      <use xlink:href="#DejaVuSans-74" transform="translate(495.605469 0)"/>
      <use xlink:href="#DejaVuSans-73" transform="translate(534.814453 0)"/>
     </g>
    </g>
   </g>
   <g id="text_22">
    <g clip-path="url(#p98514ecf66)">
     <!-- fix_tests -->
     <g transform="translate(577.509636 191.064641) scale(0.08 -0.08)">
      <use xlink:href="#DejaVuSans-66"/>
      <use xlink:href="#DejaVuSans-69" transform="translate(35.205078 0)"/>
      <use xlink:href="#DejaVuSans-78" transform="translate(62.988281 0)"/>
      <use xlink:href="#DejaVuSans-5f" transform="translate(122.167969 0)"/>
      <use xlink:href="#DejaVuSans-74" transform="translate(172.167969 0)"/>
      <use xlink:href="#DejaVuSans-65" transform="translate(211.376953 0)"/>
      <use xlink:href="#DejaVuSans-73" transform="translate(272.900391 0)"/>
      <use xlink:href="#DejaVuSans-74" transform="translate(325 0)"/>
      <use xlink:href="#DejaVuSans-73" transform="translate(364.208984 0)"/>
     </g>
    </g>
   </g>
   <g id="text_23">
    <g clip-path="url(#p98514ecf66)">
     <!-- run_tests_retry -->
     <g transform="translate(547.51036 161.333556) scale(0.08 -0.08)">
      <use xlink:href="#DejaVuSans-72"/>
      <use xlink:href="#DejaVuSans-75" transform="translate(41.113281 0)"/>
      <use xlink:href="#DejaVuSans-6e" transform="translate(104.492188 0)"/>
      <use xlink:href="#DejaVuSans-5f" transform="translate(167.871094 0)"/>
      <use xlink:href="#DejaVuSans-74" transform="translate(217.871094 0)"/>
      <use xlink:href="#DejaVuSans-65" transform="translate(257.080078 0)"/>
      <use xlink:href="#DejaVuSans-73" transform="translate(318.603516 0)"/>
      <use xlink:href="#DejaVuSans-74" transform="translate(370.703125 0)"/>
      <use xlink:href="#DejaVuSans-73" transform="translate(409.912109 0)"/>
      <use xlink:href="#DejaVuSans-5f" transform="translate(462.011719 0)"/>
      <use xlink:href="#DejaVuSans-72" transform="translate(512.011719 0)"/>
      <use xlink:href="#DejaVuSans-65" transform="translate(550.875 0)"/>
      <use xlink:href="#DejaVuSans-74" transform="translate(612.398438 0)"/>
      <use xlink:href="#DejaVuSans-72" transform="translate(651.607422 0)"/>
      <use xlink:href="#DejaVuSans-79" transform="translate(692.720703 0)"/>
     </g>
    </g>
   </g>
   <g id="text_24">
    <g clip-path="url(#p98514ecf66)">
     <!-- check_retry -->
     <g transform="translate(521.126183 220.684476) scale(0.08 -0.08)">
      <use xlink:href="#DejaVuSans-63"/>
      <use xlink:href="#DejaVuSans-68" transform="translate(54.980469 0)"/>
      <use xlink:href="#DejaVuSans-65" transform="translate(118.359375 0)"/>
      <use xlink:href="#DejaVuSans-63" transform="translate(179.882812 0)"/>
      <use xlink:href="#DejaVuSans-6b" transform="translate(234.863281 0)"/>
      <use xlink:href="#DejaVuSans-5f" transform="translate(292.773438 0)"/>
      <use xlink:href="#DejaVuSans-72" transform="translate(342.773438 0)"/>
      <use xlink:href="#DejaVuSans-65" transform="translate(381.636719 0)"/>
      <use xlink:href="#DejaVuSans-74" transform="translate(443.160156 0)"/>
      <use xlink:href="#DejaVuSans-72" transform="translate(482.369141 0)"/>
      <use xlink:href="#DejaVuSans-79" transform="translate(523.482422 0)"/>
     </g>
    </g>
   </g>
   <g id="text_25">
    <g clip-path="url(#p98514ecf66)">
     <!-- generate_tests -->
     <g transform="translate(497.970032 250.19306) scale(0.08 -0.08)">
      <defs>
       <path id="DejaVuSans-67" d="M 2906 1791 
Q 2906 2416 2648 2759 
Q 2391 3103 1925 3103 
Q 1463 3103 1205 2759 
Q 947 2416 947 1791 
Q 947 1169 1205 825 
Q 1463 481 1925 481 
Q 2391 481 2648 825 
Q 2906 1169 2906 1791 
z
M 3481 434 
Q 3481 -459 3084 -895 
Q 2688 -1331 1869 -1331 
Q 1566 -1331 1297 -1286 
Q 1028 -1241 775 -1147 
L 775 -588 
Q 1028 -725 1275 -790 
Q 1522 -856 1778 -856 
Q 2344 -856 2625 -561 
Q 2906 -266 2906 331 
L 2906 616 
Q 2728 306 2450 153 
Q 2172 0 1784 0 
Q 1141 0 747 490 
Q 353 981 353 1791 
Q 353 2603 747 3093 
Q 1141 3584 1784 3584 
Q 2172 3584 2450 3431 
Q 2728 3278 2906 2969 
L 2906 3500 
L 3481 3500 
L 3481 434 
z
" transform="scale(0.015625)"/>
      </defs>
      <use xlink:href="#DejaVuSans-67"/>
      <use xlink:href="#DejaVuSans-65" transform="translate(63.476562 0)"/>
      <use xlink:href="#DejaVuSans-6e" transform="translate(125 0)"/>
      <use xlink:href="#DejaVuSans-65" transform="translate(188.378906 0)"/>
      <use xlink:href="#DejaVuSans-72" transform="translate(249.902344 0)"/>
      <use xlink:href="#DejaVuSans-61" transform="translate(291.015625 0)"/>
      <use xlink:href="#DejaVuSans-74" transform="translate(352.294922 0)"/>
      <use xlink:href="#DejaVuSans-65" transform="translate(391.503906 0)"/>
      <use xlink:href="#DejaVuSans-5f" transform="translate(453.027344 0)"/>
      <use xlink:href="#DejaVuSans-74" transform="translate(503.027344 0)"/>
      <use xlink:href="#DejaVuSans-65" transform="translate(542.236328 0)"/>
      <use xlink:href="#DejaVuSans-73" transform="translate(603.759766 0)"/>
      <use xlink:href="#DejaVuSans-74" transform="translate(655.859375 0)"/>
      <use xlink:href="#DejaVuSans-73" transform="translate(695.068359 0)"/>
     </g>
    </g>
   </g>
   <g id="text_26">
    <g clip-path="url(#p98514ecf66)">
     <!-- code_review -->
     <g transform="translate(486.406381 220.684476) scale(0.08 -0.08)">
      <use xlink:href="#DejaVuSans-63"/>
      <use xlink:href="#DejaVuSans-6f" transform="translate(54.980469 0)"/>
      <use xlink:href="#DejaVuSans-64" transform="translate(116.162109 0)"/>
      <use xlink:href="#DejaVuSans-65" transform="translate(179.638672 0)"/>
      <use xlink:href="#DejaVuSans-5f" transform="translate(241.162109 0)"/>
      <use xlink:href="#DejaVuSans-72" transform="translate(291.162109 0)"/>
      <use xlink:href="#DejaVuSans-65" transform="translate(330.025391 0)"/>
      <use xlink:href="#DejaVuSans-76" transform="translate(391.548828 0)"/>
      <use xlink:href="#DejaVuSans-69" transform="translate(450.728516 0)"/>
      <use xlink:href="#DejaVuSans-65" transform="translate(478.511719 0)"/>
      <use xlink:href="#DejaVuSans-77" transform="translate(540.035156 0)"/>
     </g>
    </g>
   </g>
   <g id="text_27">
    <g clip-path="url(#p98514ecf66)">
     <!-- check_review -->
     <g transform="translate(434.614177 191.064641) scale(0.08 -0.08)">
      <use xlink:href="#DejaVuSans-63"/>
      <use xlink:href="#DejaVuSans-68" transform="translate(54.980469 0)"/>
      <use xlink:href="#DejaVuSans-65" transform="translate(118.359375 0)"/>
      <use xlink:href="#DejaVuSans-63" transform="translate(179.882812 0)"/>
      <use xlink:href="#DejaVuSans-6b" transform="translate(234.863281 0)"/>
      <use xlink:href="#DejaVuSans-5f" transform="translate(292.773438 0)"/>
      <use xlink:href="#DejaVuSans-72" transform="translate(342.773438 0)"/>
      <use xlink:href="#DejaVuSans-65" transform="translate(381.636719 0)"/>
      <use xlink:href="#DejaVuSans-76" transform="translate(443.160156 0)"/>
      <use xlink:href="#DejaVuSans-69" transform="translate(502.339844 0)"/>
      <use xlink:href="#DejaVuSans-65" transform="translate(530.123047 0)"/>
      <use xlink:href="#DejaVuSans-77" transform="translate(591.646484 0)"/>
     </g>
    </g>
   </g>
   <g id="text_28">
    <g clip-path="url(#p98514ecf66)">
     <!-- address_issues -->
     <g transform="translate(448.056578 161.444806) scale(0.08 -0.08)">
      <use xlink:href="#DejaVuSans-61"/>
      <use xlink:href="#DejaVuSans-64" transform="translate(61.279297 0)"/>
      <use xlink:href="#DejaVuSans-64" transform="translate(124.755859 0)"/>
      <use xlink:href="#DejaVuSans-72" transform="translate(188.232422 0)"/>
      <use xlink:href="#DejaVuSans-65" transform="translate(227.095703 0)"/>
      <use xlink:href="#DejaVuSans-73" transform="translate(288.619141 0)"/>
      <use xlink:href="#DejaVuSans-73" transform="translate(340.71875 0)"/>
      <use xlink:href="#DejaVuSans-5f" transform="translate(392.818359 0)"/>
      <use xlink:href="#DejaVuSans-69" transform="translate(442.818359 0)"/>
      <use xlink:href="#DejaVuSans-73" transform="translate(470.601562 0)"/>
      <use xlink:href="#DejaVuSans-73" transform="translate(522.701172 0)"/>
      <use xlink:href="#DejaVuSans-75" transform="translate(574.800781 0)"/>
      <use xlink:href="#DejaVuSans-65" transform="translate(638.179688 0)"/>
      <use xlink:href="#DejaVuSans-73" transform="translate(699.703125 0)"/>
     </g>
    </g>
   </g>
   <g id="text_29">
    <g clip-path="url(#p98514ecf66)">
     <!-- human_review -->
     <g transform="translate(366.068323 72.585302) scale(0.08 -0.08)">
      <use xlink:href="#DejaVuSans-68"/>
      <use xlink:href="#DejaVuSans-75" transform="translate(63.378906 0)"/>
      <use xlink:href="#DejaVuSans-6d" transform="translate(126.757812 0)"/>
      <use xlink:href="#DejaVuSans-61" transform="translate(224.169922 0)"/>
      <use xlink:href="#DejaVuSans-6e" transform="translate(285.449219 0)"/>
      <use xlink:href="#DejaVuSans-5f" transform="translate(348.828125 0)"/>
      <use xlink:href="#DejaVuSans-72" transform="translate(398.828125 0)"/>
      <use xlink:href="#DejaVuSans-65" transform="translate(437.691406 0)"/>
      <use xlink:href="#DejaVuSans-76" transform="translate(499.214844 0)"/>
      <use xlink:href="#DejaVuSans-69" transform="translate(558.394531 0)"/>
      <use xlink:href="#DejaVuSans-65" transform="translate(586.177734 0)"/>
      <use xlink:href="#DejaVuSans-77" transform="translate(647.701172 0)"/>
     </g>
    </g>
   </g>
   <g id="text_30">
    <g clip-path="url(#p98514ecf66)">
     <!-- finalize -->
     <g transform="translate(298.078192 220.795726) scale(0.08 -0.08)">
      <use xlink:href="#DejaVuSans-66"/>
      <use xlink:href="#DejaVuSans-69" transform="translate(35.205078 0)"/>
      <use xlink:href="#DejaVuSans-6e" transform="translate(62.988281 0)"/>
      <use xlink:href="#DejaVuSans-61" transform="translate(126.367188 0)"/>
      <use xlink:href="#DejaVuSans-6c" transform="translate(187.646484 0)"/>
      <use xlink:href="#DejaVuSans-69" transform="translate(215.429688 0)"/>
      <use xlink:href="#DejaVuSans-7a" transform="translate(243.212891 0)"/>
      <use xlink:href="#DejaVuSans-65" transform="translate(295.703125 0)"/>
     </g>
    </g>
   </g>
   <g id="text_31">
    <g clip-path="url(#p98514ecf66)">
     <!-- update_docs -->
     <g transform="translate(220.697963 220.684476) scale(0.08 -0.08)">
      <use xlink:href="#DejaVuSans-75"/>
      <use xlink:href="#DejaVuSans-70" transform="translate(63.378906 0)"/>
      <use xlink:href="#DejaVuSans-64" transform="translate(126.855469 0)"/>
      <use xlink:href="#DejaVuSans-61" transform="translate(190.332031 0)"/>
      <use xlink:href="#DejaVuSans-74" transform="translate(251.611328 0)"/>
      <use xlink:href="#DejaVuSans-65" transform="translate(290.820312 0)"/>
      <use xlink:href="#DejaVuSans-5f" transform="translate(352.34375 0)"/>
      <use xlink:href="#DejaVuSans-64" transform="translate(402.34375 0)"/>
      <use xlink:href="#DejaVuSans-6f" transform="translate(465.820312 0)"/>
      <use xlink:href="#DejaVuSans-63" transform="translate(527.001953 0)"/>
      <use xlink:href="#DejaVuSans-73" transform="translate(581.982422 0)"/>
     </g>
    </g>
   </g>
   <g id="text_32">
    <g clip-path="url(#p98514ecf66)">
     <!-- format_code -->
     <g transform="translate(237.645364 191.064641) scale(0.08 -0.08)">
      <use xlink:href="#DejaVuSans-66"/>
      <use xlink:href="#DejaVuSans-6f" transform="translate(35.205078 0)"/>
      <use xlink:href="#DejaVuSans-72" transform="translate(96.386719 0)"/>
      <use xlink:href="#DejaVuSans-6d" transform="translate(135.75 0)"/>
      <use xlink:href="#DejaVuSans-61" transform="translate(233.162109 0)"/>
      <use xlink:href="#DejaVuSans-74" transform="translate(294.441406 0)"/>
      <use xlink:href="#DejaVuSans-5f" transform="translate(333.650391 0)"/>
      <use xlink:href="#DejaVuSans-63" transform="translate(383.650391 0)"/>
      <use xlink:href="#DejaVuSans-6f" transform="translate(438.630859 0)"/>
      <use xlink:href="#DejaVuSans-64" transform="translate(499.8125 0)"/>
      <use xlink:href="#DejaVuSans-65" transform="translate(563.289062 0)"/>
     </g>
    </g>
   </g>
   <g id="text_33">
    <g clip-path="url(#p98514ecf66)">
     <!-- complete -->
     <g transform="translate(277.106416 250.41556) scale(0.08 -0.08)">
      <use xlink:href="#DejaVuSans-63"/>
      <use xlink:href="#DejaVuSans-6f" transform="translate(54.980469 0)"/>
      <use xlink:href="#DejaVuSans-6d" transform="translate(116.162109 0)"/>
      <use xlink:href="#DejaVuSans-70" transform="translate(213.574219 0)"/>
      <use xlink:href="#DejaVuSans-6c" transform="translate(277.050781 0)"/>
      <use xlink:href="#DejaVuSans-65" transform="translate(304.833984 0)"/>
      <use xlink:href="#DejaVuSans-74" transform="translate(366.357422 0)"/>
      <use xlink:href="#DejaVuSans-65" transform="translate(405.566406 0)"/>
     </g>
    </g>
   </g>
   <g id="text_34">
    <g clip-path="url(#p98514ecf66)">
     <!-- abort -->
     <g transform="translate(202.25941 280.035395) scale(0.08 -0.08)">
      <defs>
       <path id="DejaVuSans-62" d="M 3116 1747 
Q 3116 2381 2855 2742 
Q 2594 3103 2138 3103 
Q 1681 3103 1420 2742 
Q 1159 2381 1159 1747 
Q 1159 1113 1420 752 
Q 1681 391 2138 391 
Q 2594 391 2855 752 
Q 3116 1113 3116 1747 
z
M 1159 2969 
Q 1341 3281 1617 3432 
Q 1894 3584 2278 3584 
Q 2916 3584 3314 3078 
Q 3713 2572 3713 1747 
Q 3713 922 3314 415 
Q 2916 -91 2278 -91 
Q 1894 -91 1617 61 
Q 1341 213 1159 525 
L 1159 0 
L 581 0 
L 581 4863 
L 1159 4863 
L 1159 2969 
z
" transform="scale(0.015625)"/>
      </defs>
      <use xlink:href="#DejaVuSans-61"/>
      <use xlink:href="#DejaVuSans-62" transform="translate(61.279297 0)"/>
      <use xlink:href="#DejaVuSans-6f" transform="translate(124.755859 0)"/>
      <use xlink:href="#DejaVuSans-72" transform="translate(185.9375 0)"/>
      <use xlink:href="#DejaVuSans-74" transform="translate(227.050781 0)"/>
     </g>
    </g>
   </g>
   <g id="text_35">
    <!-- feature_implementation -->
    <g transform="translate(333.369531 17.837812) scale(0.14 -0.14)">
     <defs>
      <path id="DejaVuSans-Bold-66" d="M 2841 4863 
L 2841 4128 
L 2222 4128 
Q 1984 4128 1890 4042 
Q 1797 3956 1797 3744 
L 1797 3500 
L 2753 3500 
L 2753 2700 
L 1797 2700 
L 1797 0 
L 678 0 
L 678 2700 
L 122 2700 
L 122 3500 
L 678 3500 
L 678 3744 
Q 678 4316 997 4589 
Q 1316 4863 1984 4863 
L 2841 4863 
z
" transform="scale(0.015625)"/>
      <path id="DejaVuSans-Bold-65" d="M 4031 1759 
L 4031 1441 
L 1416 1441 
Q 1456 1047 1700 850 
Q 1944 653 2381 653 
Q 2734 653 3104 758 
Q 3475 863 3866 1075 
L 3866 213 
Q 3469 63 3072 -14 
Q 2675 -91 2278 -91 
Q 1328 -91 801 392 
Q 275 875 275 1747 
Q 275 2603 792 3093 
Q 1309 3584 2216 3584 
Q 3041 3584 3536 3087 
Q 4031 2591 4031 1759 
z
M 2881 2131 
Q 2881 2450 2695 2645 
Q 2509 2841 2209 2841 
Q 1884 2841 1681 2658 
Q 1478 2475 1428 2131 
L 2881 2131 
z
" transform="scale(0.015625)"/>
      <path id="DejaVuSans-Bold-61" d="M 2106 1575 
Q 1756 1575 1579 1456 
Q 1403 1338 1403 1106 
Q 1403 894 1545 773 
Q 1688 653 1941 653 
Q 2256 653 2472 879 
Q 2688 1106 2688 1447 
L 2688 1575 
L 2106 1575 
z
M 3816 1997 
L 3816 0 
L 2688 0 
L 2688 519 
Q 2463 200 2181 54 
Q 1900 -91 1497 -91 
Q 953 -91 614 226 
Q 275 544 275 1050 
Q 275 1666 698 1953 
Q 1122 2241 2028 2241 
L 2688 2241 
L 2688 2328 
Q 2688 2594 2478 2717 
Q 2269 2841 1825 2841 
Q 1466 2841 1156 2769 
Q 847 2697 581 2553 
L 581 3406 
Q 941 3494 1303 3539 
Q 1666 3584 2028 3584 
Q 2975 3584 3395 3211 
Q 3816 2838 3816 1997 
z
" transform="scale(0.015625)"/>
      <path id="DejaVuSans-Bold-74" d="M 1759 4494 
L 1759 3500 
L 2913 3500 
L 2913 2700 
L 1759 2700 
L 1759 1216 
Q 1759 972 1856 886 
Q 1953 800 2241 800 
L 2816 800 
L 2816 0 
L 1856 0 
Q 1194 0 917 276 
Q 641 553 641 1216 
L 641 2700 
L 84 2700 
L 84 3500 
L 641 3500 
L 641 4494 
L 1759 4494 
z
" transform="scale(0.015625)"/>
      <path id="DejaVuSans-Bold-75" d="M 500 1363 
L 500 3500 
L 1625 3500 
L 1625 3150 
Q 1625 2866 1622 2436 
Q 1619 2006 1619 1863 
Q 1619 1441 1641 1255 
Q 1663 1069 1716 984 
Q 1784 875 1895 815 
Q 2006 756 2150 756 
Q 2500 756 2700 1025 
Q 2900 1294 2900 1772 
L 2900 3500 
L 4019 3500 
L 4019 0 
L 2900 0 
L 2900 506 
Q 2647 200 2364 54 
Q 2081 -91 1741 -91 
Q 1134 -91 817 281 
Q 500 653 500 1363 
z
" transform="scale(0.015625)"/>
      <path id="DejaVuSans-Bold-72" d="M 3138 2547 
Q 2991 2616 2845 2648 
Q 2700 2681 2553 2681 
Q 2122 2681 1889 2404 
Q 1656 2128 1656 1613 
L 1656 0 
L 538 0 
L 538 3500 
L 1656 3500 
L 1656 2925 
Q 1872 3269 2151 3426 
Q 2431 3584 2822 3584 
Q 2878 3584 2943 3579 
Q 3009 3575 3134 3559 
L 3138 2547 
z
" transform="scale(0.015625)"/>
      <path id="DejaVuSans-Bold-5f" d="M 3200 -916 
L 3200 -1509 
L 0 -1509 
L 0 -916 
L 3200 -916 
z
" transform="scale(0.015625)"/>
      <path id="DejaVuSans-Bold-69" d="M 538 3500 
L 1656 3500 
L 1656 0 
L 538 0 
L 538 3500 
z
M 538 4863 
L 1656 4863 
L 1656 3950 
L 538 3950 
L 538 4863 
z
" transform="scale(0.015625)"/>
      <path id="DejaVuSans-Bold-6d" d="M 3781 2919 
Q 3994 3244 4286 3414 
Q 4578 3584 4928 3584 
Q 5531 3584 5847 3212 
Q 6163 2841 6163 2131 
L 6163 0 
L 5038 0 
L 5038 1825 
Q 5041 1866 5042 1909 
Q 5044 1953 5044 2034 
Q 5044 2406 4934 2573 
Q 4825 2741 4581 2741 
Q 4263 2741 4089 2478 
Q 3916 2216 3909 1719 
L 3909 0 
L 2784 0 
L 2784 1825 
Q 2784 2406 2684 2573 
Q 2584 2741 2328 2741 
Q 2006 2741 1831 2477 
Q 1656 2213 1656 1722 
L 1656 0 
L 531 0 
L 531 3500 
L 1656 3500 
L 1656 2988 
Q 1863 3284 2130 3434 
Q 2397 3584 2719 3584 
Q 3081 3584 3359 3409 
Q 3638 3234 3781 2919 
z
" transform="scale(0.015625)"/>
      <path id="DejaVuSans-Bold-70" d="M 1656 506 
L 1656 -1331 
L 538 -1331 
L 538 3500 
L 1656 3500 
L 1656 2988 
Q 1888 3294 2169 3439 
Q 2450 3584 2816 3584 
Q 3463 3584 3878 3070 
Q 4294 2556 4294 1747 
Q 4294 938 3878 423 
Q 3463 -91 2816 -91 
Q 2450 -91 2169 54 
Q 1888 200 1656 506 
z
M 2400 2772 
Q 2041 2772 1848 2508 
Q 1656 2244 1656 1747 
Q 1656 1250 1848 986 
Q 2041 722 2400 722 
Q 2759 722 2948 984 
Q 3138 1247 3138 1747 
Q 3138 2247 2948 2509 
Q 2759 2772 2400 2772 
z
" transform="scale(0.015625)"/>
      <path id="DejaVuSans-Bold-6c" d="M 538 4863 
L 1656 4863 
L 1656 0 
L 538 0 
L 538 4863 
z
" transform="scale(0.015625)"/>
      <path id="DejaVuSans-Bold-6e" d="M 4056 2131 
L 4056 0 
L 2931 0 
L 2931 347 
L 2931 1631 
Q 2931 2084 2911 2256 
Q 2891 2428 2841 2509 
Q 2775 2619 2662 2680 
Q 2550 2741 2406 2741 
Q 2056 2741 1856 2470 
Q 1656 2200 1656 1722 
L 1656 0 
L 538 0 
L 538 3500 
L 1656 3500 
L 1656 2988 
Q 1909 3294 2193 3439 
Q 2478 3584 2822 3584 
Q 3428 3584 3742 3212 
Q 4056 2841 4056 2131 
z
" transform="scale(0.015625)"/>
      <path id="DejaVuSans-Bold-6f" d="M 2203 2784 
Q 1831 2784 1636 2517 
Q 1441 2250 1441 1747 
Q 1441 1244 1636 976 
Q 1831 709 2203 709 
Q 2569 709 2762 976 
Q 2956 1244 2956 1747 
Q 2956 2250 2762 2517 
Q 2569 2784 2203 2784 
z
M 2203 3584 
Q 3106 3584 3614 3096 
Q 4122 2609 4122 1747 
Q 4122 884 3614 396 
Q 3106 -91 2203 -91 
Q 1297 -91 786 396 
Q 275 884 275 1747 
Q 275 2609 786 3096 
Q 1297 3584 2203 3584 
z
" transform="scale(0.015625)"/>
     </defs>
     <use xlink:href="#DejaVuSans-Bold-66"/>
     <use xlink:href="#DejaVuSans-Bold-65" transform="translate(43.505859 0)"/>
     <use xlink:href="#DejaVuSans-Bold-61" transform="translate(111.328125 0)"/>
     <use xlink:href="#DejaVuSans-Bold-74" transform="translate(178.808594 0)"/>
     <use xlink:href="#DejaVuSans-Bold-75" transform="translate(226.611328 0)"/>
     <use xlink:href="#DejaVuSans-Bold-72" transform="translate(297.802734 0)"/>
     <use xlink:href="#DejaVuSans-Bold-65" transform="translate(347.119141 0)"/>
     <use xlink:href="#DejaVuSans-Bold-5f" transform="translate(414.941406 0)"/>
     <use xlink:href="#DejaVuSans-Bold-69" transform="translate(464.941406 0)"/>
     <use xlink:href="#DejaVuSans-Bold-6d" transform="translate(499.21875 0)"/>
     <use xlink:href="#DejaVuSans-Bold-70" transform="translate(603.417969 0)"/>
     <use xlink:href="#DejaVuSans-Bold-6c" transform="translate(675 0)"/>
     <use xlink:href="#DejaVuSans-Bold-65" transform="translate(709.277344 0)"/>
     <use xlink:href="#DejaVuSans-Bold-6d" transform="translate(777.099609 0)"/>
     <use xlink:href="#DejaVuSans-Bold-65" transform="translate(881.298828 0)"/>
     <use xlink:href="#DejaVuSans-Bold-6e" transform="translate(949.121094 0)"/>
     <use xlink:href="#DejaVuSans-Bold-74" transform="translate(1020.3125 0)"/>
     <use xlink:href="#DejaVuSans-Bold-61" transform="translate(1068.115234 0)"/>
     <use xlink:href="#DejaVuSans-Bold-74" transform="translate(1135.595703 0)"/>
     <use xlink:href="#DejaVuSans-Bold-69" transform="translate(1183.398438 0)"/>
     <use xlink:href="#DejaVuSans-Bold-6f" transform="translate(1217.675781 0)"/>
     <use xlink:href="#DejaVuSans-Bold-6e" transform="translate(1286.376953 0)"/>
    </g>
   </g>
  </g>
 </g>
 <defs>
  <clipPath id="p98514ecf66">
   <rect x="7.2" y="23.837812" width="842.4" height="537.6"/>
  </clipPath>
 </defs>
</svg>
