<?xml version="1.0" encoding="utf-8" standalone="no"?>
<!DOCTYPE svg PUBLIC "-//W3C//DTD SVG 1.1//EN"
  "http://www.w3.org/Graphics/SVG/1.1/DTD/svg11.dtd">
<svg xmlns:xlink="http://www.w3.org/1999/xlink" width="856.8pt" height="568.637812pt" viewBox="0 0 856.8 568.637812" xmlns="http://www.w3.org/2000/svg" version="1.1">
 <metadata>
  <rdf:RDF xmlns:dc="http://purl.org/dc/elements/1.1/" xmlns:cc="http://creativecommons.org/ns#" xmlns:rdf="http://www.w3.org/1999/02/22-rdf-syntax-ns#">
   <cc:Work>
    <dc:type rdf:resource="http://purl.org/dc/dcmitype/StillImage"/>
    <dc:date>2026-01-03T04:00:58.936064</dc:date>
    <dc:format>image/svg+xml</dc:format>
    <dc:creator>
     <cc:Agent>
      <dc:title>Matplotlib v3.10.8, https://matplotlib.org/</dc:title>
     </cc:Agent>
    </dc:creator>
   </cc:Work>
  </rdf:RDF>
 </metadata>
 <defs>
  <style type="text/css">*{stroke-linejoin: round; stroke-linecap: butt}</style>
 </defs>
 <g id="figure_1">
  <g id="patch_1">
   <path d="M 0 568.637812 
L 856.8 568.637812 
L 856.8 0 
L 0 0 
z
" style="fill: #ffffff"/>
  </g>
  <g id="axes_1">
   <g id="patch_2">
    <path d="M 88.961344 514.786573 
Q 428.401412 514.786573 766.723446 514.786573 
" clip-path="url(#p025cc2b383)" style="fill: none; stroke: #666666; stroke-linecap: round"/>
    <path d="M 762.723446 512.786573 
L 766.723446 514.786573 
L 762.723446 516.786573 
z
" clip-path="url(#p025cc2b383)" style="fill: #666666; stroke: #666666; stroke-linecap: round"/>
   </g>
   <g id="patch_3">
    <path d="M 772.110045 507.317134 
Q 761.993569 490.100872 752.443513 473.848545 
" clip-path="url(#p025cc2b383)" style="fill: none; stroke: #666666; stroke-linecap: round"/>
    <path d="M 752.745657 478.310463 
L 752.443513 473.848545 
L 756.194334 476.28398 
z
" clip-path="url(#p025cc2b383)" style="fill: #666666; stroke: #666666; stroke-linecap: round"/>
   </g>
   <g id="patch_4">
    <path d="M 738.841346 465.74729 
Q 421.149584 477.761717 104.575057 489.733893 
" clip-path="url(#p025cc2b383)" style="fill: none; stroke: #666666; stroke-linecap: round"/>
    <path d="M 108.647782 491.581301 
L 104.575057 489.733893 
L 108.496618 487.584158 
z
" clip-path="url(#p025cc2b383)" style="fill: #666666; stroke: #666666; stroke-linecap: round"/>
   </g>
   <g id="patch_5">
    <path d="M 99.193756 482.634503 
Q 218.09034 280.295777 336.420505 78.920985 
" clip-path="url(#p025cc2b383)" style="fill: none; stroke: #666666; stroke-linecap: round"/>
    <path d="M 332.669685 81.35642 
L 336.420505 78.920985 
L 336.118361 83.382902 
z
" clip-path="url(#p025cc2b383)" style="fill: #666666; stroke: #666666; stroke-linecap: round"/>
   </g>
   <g id="patch_6">
    <path d="M 345.764335 77.958491 
Q 355.880811 95.174753 365.430867 111.42708 
" clip-path="url(#p025cc2b383)" style="fill: none; stroke: #666666; stroke-linecap: round"/>
    <path d="M 365.128723 106.965162 
L 365.430867 111.42708 
L 361.680046 108.991645 
z
" clip-path="url(#p025cc2b383)" style="fill: #666666; stroke: #666666; stroke-linecap: round"/>
   </g>
   <g id="patch_7">
    <path d="M 374.7726 127.324882 
Q 377.635966 132.197771 379.932913 136.106725 
" clip-path="url(#p025cc2b383)" style="fill: none; stroke: #666666; stroke-linecap: round"/>
    <path d="M 379.630768 131.644807 
L 379.932913 136.106725 
L 376.182092 133.671289 
z
" clip-path="url(#p025cc2b383)" style="fill: #666666; stroke: #666666; stroke-linecap: round"/>
   </g>
   <g id="patch_8">
    <path d="M 363.786499 114.242065 
Q 355.878803 107.51339 348.822603 101.509254 
" clip-path="url(#p025cc2b383)" style="fill: none; stroke: #666666; stroke-linecap: round"/>
    <path d="M 350.572909 105.624643 
L 348.822603 101.509254 
L 353.165098 102.578242 
z
" clip-path="url(#p025cc2b383)" style="fill: #666666; stroke: #666666; stroke-linecap: round"/>
   </g>
   <g id="patch_9">
    <path d="M 341.375207 86.509627 
Q 341.375207 82.831075 341.375207 80.270556 
" clip-path="url(#p025cc2b383)" style="fill: none; stroke: #666666; stroke-linecap: round"/>
    <path d="M 339.375207 84.270556 
L 341.375207 80.270556 
L 343.375207 84.270556 
z
" clip-path="url(#p025cc2b383)" style="fill: #666666; stroke: #666666; stroke-linecap: round"/>
   </g>
   <g id="patch_10">
    <path d="M 389.276732 137.0692 
Q 392.140098 132.196312 394.437045 128.287358 
" clip-path="url(#p025cc2b383)" style="fill: none; stroke: #666666; stroke-linecap: round"/>
    <path d="M 390.686224 130.722793 
L 394.437045 128.287358 
L 394.134901 132.749275 
z
" clip-path="url(#p025cc2b383)" style="fill: #666666; stroke: #666666; stroke-linecap: round"/>
   </g>
   <g id="patch_11">
    <path d="M 403.780422 127.324129 
Q 435.65179 181.562962 466.956738 234.83786 
" clip-path="url(#p025cc2b383)" style="fill: none; stroke: #666666; stroke-linecap: round"/>
    <path d="M 466.654594 230.375942 
L 466.956738 234.83786 
L 463.205918 232.402425 
z
" clip-path="url(#p025cc2b383)" style="fill: #666666; stroke: #666666; stroke-linecap: round"/>
   </g>
   <g id="patch_12">
    <path d="M 476.301526 235.801983 
Q 500.921392 193.903786 524.97484 152.969524 
" clip-path="url(#p025cc2b383)" style="fill: none; stroke: #666666; stroke-linecap: round"/>
    <path d="M 521.224019 155.404959 
L 524.97484 152.969524 
L 524.672696 157.431441 
z
" clip-path="url(#p025cc2b383)" style="fill: #666666; stroke: #666666; stroke-linecap: round"/>
   </g>
   <g id="patch_13">
    <path d="M 464.75284 238.397756 
Q 435.652707 218.588662 407.476796 199.408707 
" clip-path="url(#p025cc2b383)" style="fill: none; stroke: #666666; stroke-linecap: round"/>
    <path d="M 409.657956 203.312876 
L 407.476796 199.408707 
L 411.908828 200.00628 
z
" clip-path="url(#p025cc2b383)" style="fill: #666666; stroke: #666666; stroke-linecap: round"/>
   </g>
   <g id="patch_14">
    <path d="M 396.951068 185.597954 
Q 392.139746 169.222094 387.643586 153.918927 
" clip-path="url(#p025cc2b383)" style="fill: none; stroke: #666666; stroke-linecap: round"/>
    <path d="M 386.852257 158.320495 
L 387.643586 153.918927 
L 390.690043 157.192931 
z
" clip-path="url(#p025cc2b383)" style="fill: #666666; stroke: #666666; stroke-linecap: round"/>
   </g>
   <g id="patch_15">
    <path d="M 395.002607 201.374469 
Q 392.139241 206.247357 389.842294 210.156311 
" clip-path="url(#p025cc2b383)" style="fill: none; stroke: #666666; stroke-linecap: round"/>
    <path d="M 393.593115 207.720876 
L 389.842294 210.156311 
L 390.144438 205.694394 
z
" clip-path="url(#p025cc2b383)" style="fill: #666666; stroke: #666666; stroke-linecap: round"/>
   </g>
   <g id="patch_16">
    <path d="M 380.499581 226.055781 
Q 319.618402 329.663638 259.303642 432.30756 
" clip-path="url(#p025cc2b383)" style="fill: none; stroke: #666666; stroke-linecap: round"/>
    <path d="M 263.054462 429.872125 
L 259.303642 432.30756 
L 259.605786 427.845642 
z
" clip-path="url(#p025cc2b383)" style="fill: #666666; stroke: #666666; stroke-linecap: round"/>
   </g>
   <g id="patch_17">
    <path d="M 246.075648 443.297355 
Q 174.57892 465.4198 104.150265 487.211762 
" clip-path="url(#p025cc2b383)" style="fill: none; stroke: #666666; stroke-linecap: round"/>
    <path d="M 108.562706 487.940021 
L 104.150265 487.211762 
L 107.380337 484.118765 
z
" clip-path="url(#p025cc2b383)" style="fill: #666666; stroke: #666666; stroke-linecap: round"/>
   </g>
   <g id="patch_18">
    <path d="M 262.998316 440.246418 
Q 471.913736 428.395312 679.712916 416.607527 
" clip-path="url(#p025cc2b383)" style="fill: none; stroke: #666666; stroke-linecap: round"/>
    <path d="M 675.606065 414.83728 
L 679.712916 416.607527 
L 675.832608 418.83086 
z
" clip-path="url(#p025cc2b383)" style="fill: #666666; stroke: #666666; stroke-linecap: round"/>
   </g>
   <g id="patch_19">
    <path d="M 249.961284 433.267547 
Q 247.097919 428.394659 244.800972 424.485705 
" clip-path="url(#p025cc2b383)" style="fill: none; stroke: #666666; stroke-linecap: round"/>
    <path d="M 245.103116 428.947622 
L 244.800972 424.485705 
L 248.551792 426.92114 
z
" clip-path="url(#p025cc2b383)" style="fill: #666666; stroke: #666666; stroke-linecap: round"/>
   </g>
   <g id="patch_20">
    <path d="M 261.132627 435.350719 
Q 363.130982 354.346137 464.253818 274.036871 
" clip-path="url(#p025cc2b383)" style="fill: none; stroke: #666666; stroke-linecap: round"/>
    <path d="M 459.877643 274.958333 
L 464.253818 274.036871 
L 462.365282 278.090689 
z
" clip-path="url(#p025cc2b383)" style="fill: #666666; stroke: #666666; stroke-linecap: round"/>
   </g>
   <g id="patch_21">
    <path d="M 243.925126 408.418255 
Q 312.36622 280.297567 380.280521 153.163027 
" clip-path="url(#p025cc2b383)" style="fill: none; stroke: #666666; stroke-linecap: round"/>
    <path d="M 376.631733 155.748823 
L 380.280521 153.163027 
L 380.159885 157.633535 
z
" clip-path="url(#p025cc2b383)" style="fill: #666666; stroke: #666666; stroke-linecap: round"/>
   </g>
   <g id="patch_22">
    <path d="M 534.318055 152.008078 
Q 537.18142 156.880966 539.478367 160.78992 
" clip-path="url(#p025cc2b383)" style="fill: none; stroke: #666666; stroke-linecap: round"/>
    <path d="M 539.176223 156.328003 
L 539.478367 160.78992 
L 535.727547 158.354485 
z
" clip-path="url(#p025cc2b383)" style="fill: #666666; stroke: #666666; stroke-linecap: round"/>
   </g>
   <g id="patch_23">
    <path d="M 548.822187 176.691273 
Q 551.685553 181.564162 553.982499 185.473116 
" clip-path="url(#p025cc2b383)" style="fill: none; stroke: #666666; stroke-linecap: round"/>
    <path d="M 553.680355 181.011198 
L 553.982499 185.473116 
L 550.231679 183.03768 
z
" clip-path="url(#p025cc2b383)" style="fill: #666666; stroke: #666666; stroke-linecap: round"/>
   </g>
   <g id="patch_24">
    <path d="M 563.325212 201.372586 
Q 624.206391 304.980442 684.521152 407.624364 
" clip-path="url(#p025cc2b383)" style="fill: none; stroke: #666666; stroke-linecap: round"/>
    <path d="M 684.219007 403.162447 
L 684.521152 407.624364 
L 680.770331 405.188929 
z
" clip-path="url(#p025cc2b383)" style="fill: #666666; stroke: #666666; stroke-linecap: round"/>
   </g>
   <g id="patch_25">
    <path d="M 558.93719 202.567651 
Q 558.93719 206.246203 558.93719 208.806722 
" clip-path="url(#p025cc2b383)" style="fill: none; stroke: #666666; stroke-linecap: round"/>
    <path d="M 560.93719 204.806722 
L 558.93719 208.806722 
L 556.93719 204.806722 
z
" clip-path="url(#p025cc2b383)" style="fill: #666666; stroke: #666666; stroke-linecap: round"/>
   </g>
   <g id="patch_26">
    <path d="M 563.711629 225.810591 
Q 624.204825 317.319556 684.08147 407.895854 
" clip-path="url(#p025cc2b383)" style="fill: none; stroke: #666666; stroke-linecap: round"/>
    <path d="M 683.544034 403.456129 
L 684.08147 407.895854 
L 680.207228 405.661968 
z
" clip-path="url(#p025cc2b383)" style="fill: #666666; stroke: #666666; stroke-linecap: round"/>
   </g>
   <g id="patch_27">
    <path d="M 693.863509 408.584352 
Q 696.726875 403.711463 699.023822 399.802509 
" clip-path="url(#p025cc2b383)" style="fill: none; stroke: #666666; stroke-linecap: round"/>
    <path d="M 695.273001 402.237945 
L 699.023822 399.802509 
L 698.721678 404.264427 
z
" clip-path="url(#p025cc2b383)" style="fill: #666666; stroke: #666666; stroke-linecap: round"/>
   </g>
   <g id="patch_28">
    <path d="M 680.936028 414.60073 
Q 616.952344 403.711959 554.070847 393.010758 
" clip-path="url(#p025cc2b383)" style="fill: none; stroke: #666666; stroke-linecap: round"/>
    <path d="M 557.678616 395.653484 
L 554.070847 393.010758 
L 558.349689 391.710179 
z
" clip-path="url(#p025cc2b383)" style="fill: #666666; stroke: #666666; stroke-linecap: round"/>
   </g>
   <g id="patch_29">
    <path d="M 708.367199 398.83928 
Q 725.735748 428.397153 742.537878 456.991091 
" clip-path="url(#p025cc2b383)" style="fill: none; stroke: #666666; stroke-linecap: round"/>
    <path d="M 742.235734 452.529174 
L 742.537878 456.991091 
L 738.787057 454.555656 
z
" clip-path="url(#p025cc2b383)" style="fill: #666666; stroke: #666666; stroke-linecap: round"/>
   </g>
   <g id="patch_30">
    <path d="M 540.043929 383.901156 
Q 529.927454 366.684894 520.377398 350.432567 
" clip-path="url(#p025cc2b383)" style="fill: none; stroke: #666666; stroke-linecap: round"/>
    <path d="M 520.679542 354.894485 
L 520.377398 350.432567 
L 524.128218 352.868002 
z
" clip-path="url(#p025cc2b383)" style="fill: #666666; stroke: #666666; stroke-linecap: round"/>
   </g>
   <g id="patch_31">
    <path d="M 511.035665 334.534765 
Q 508.172299 329.661877 505.875352 325.752922 
" clip-path="url(#p025cc2b383)" style="fill: none; stroke: #666666; stroke-linecap: round"/>
    <path d="M 506.177496 330.21484 
L 505.875352 325.752922 
L 509.626172 328.188358 
z
" clip-path="url(#p025cc2b383)" style="fill: #666666; stroke: #666666; stroke-linecap: round"/>
   </g>
   <g id="patch_32">
    <path d="M 515.424793 350.666824 
Q 515.424793 354.345377 515.424793 356.905895 
" clip-path="url(#p025cc2b383)" style="fill: none; stroke: #666666; stroke-linecap: round"/>
    <path d="M 517.424793 352.905895 
L 515.424793 356.905895 
L 513.424793 352.905895 
z
" clip-path="url(#p025cc2b383)" style="fill: #666666; stroke: #666666; stroke-linecap: round"/>
   </g>
   <g id="patch_33">
    <path d="M 522.021766 372.300777 
Q 529.929461 379.029453 536.985661 385.033589 
" clip-path="url(#p025cc2b383)" style="fill: none; stroke: #666666; stroke-linecap: round"/>
    <path d="M 535.235355 380.9182 
L 536.985661 385.033589 
L 532.643166 383.9646 
z
" clip-path="url(#p025cc2b383)" style="fill: #666666; stroke: #666666; stroke-linecap: round"/>
   </g>
   <g id="patch_34">
    <path d="M 496.531532 309.851569 
Q 493.668166 304.978681 491.37122 301.069727 
" clip-path="url(#p025cc2b383)" style="fill: none; stroke: #666666; stroke-linecap: round"/>
    <path d="M 491.673364 305.531644 
L 491.37122 301.069727 
L 495.12204 303.505162 
z
" clip-path="url(#p025cc2b383)" style="fill: #666666; stroke: #666666; stroke-linecap: round"/>
   </g>
   <g id="patch_35">
    <path d="M 482.0274 285.168374 
Q 479.164034 280.295485 476.867087 276.386531 
" clip-path="url(#p025cc2b383)" style="fill: none; stroke: #666666; stroke-linecap: round"/>
    <path d="M 477.169232 280.848449 
L 476.867087 276.386531 
L 480.617908 278.821967 
z
" clip-path="url(#p025cc2b383)" style="fill: #666666; stroke: #666666; stroke-linecap: round"/>
   </g>
   <g id="text_1">
    <g id="patch_36">
     <path d="M 369.266066 128.785107 
L 376.543829 141.170436 
Q 377.607732 142.980991 379.418287 141.917088 
L 385.259214 138.484892 
Q 387.069769 137.420989 386.005866 135.610434 
L 378.728103 123.225105 
Q 377.664199 121.41455 375.853644 122.478453 
L 370.012718 125.910649 
Q 368.202163 126.974552 369.266066 128.785107 
z
" clip-path="url(#p025cc2b383)" style="fill: #ffffff; stroke: #ffffff; stroke-linejoin: miter"/>
    </g>
    <g clip-path="url(#p025cc2b383)">
     <!-- true -->
     <g transform="translate(372.331751 126.983675) rotate(-300.438989) scale(0.07 -0.07)">
      <defs>
       <path id="DejaVuSans-74" d="M 1172 4494 
L 1172 3500 
L 2356 3500 
L 2356 3053 
L 1172 3053 
L 1172 1153 
Q 1172 725 1289 603 
Q 1406 481 1766 481 
L 2356 481 
L 2356 0 
L 1766 0 
Q 1100 0 847 248 
Q 594 497 594 1153 
L 594 3053 
L 172 3053 
L 172 3500 
L 594 3500 
L 594 4494 
L 1172 4494 
z
" transform="scale(0.015625)"/>
       <path id="DejaVuSans-72" d="M 2631 2963 
Q 2534 3019 2420 3045 
Q 2306 3072 2169 3072 
Q 1681 3072 1420 2755 
Q 1159 2438 1159 1844 
L 1159 0 
L 581 0 
L 581 3500 
L 1159 3500 
L 1159 2956 
Q 1341 3275 1631 3429 
Q 1922 3584 2338 3584 
Q 2397 3584 2469 3576 
Q 2541 3569 2628 3553 
L 2631 2963 
z
" transform="scale(0.015625)"/>
       <path id="DejaVuSans-75" d="M 544 1381 
L 544 3500 
L 1119 3500 
L 1119 1403 
Q 1119 906 1312 657 
Q 1506 409 1894 409 
Q 2359 409 2629 706 
Q 2900 1003 2900 1516 
L 2900 3500 
L 3475 3500 
L 3475 0 
L 2900 0 
L 2900 538 
Q 2691 219 2414 64 
Q 2138 -91 1772 -91 
Q 1169 -91 856 284 
Q 544 659 544 1381 
z
M 1991 3584 
L 1991 3584 
z
" transform="scale(0.015625)"/>
       <path id="DejaVuSans-65" d="M 3597 1894 
L 3597 1613 
L 953 1613 
Q 991 1019 1311 708 
Q 1631 397 2203 397 
Q 2534 397 2845 478 
Q 3156 559 3463 722 
L 3463 178 
Q 3153 47 2828 -22 
Q 2503 -91 2169 -91 
Q 1331 -91 842 396 
Q 353 884 353 1716 
Q 353 2575 817 3079 
Q 1281 3584 2069 3584 
Q 2775 3584 3186 3129 
Q 3597 2675 3597 1894 
z
M 3022 2063 
Q 3016 2534 2758 2815 
Q 2500 3097 2075 3097 
Q 1594 3097 1305 2825 
Q 1016 2553 972 2059 
L 3022 2063 
z
" transform="scale(0.015625)"/>
      </defs>
      <use xlink:href="#DejaVuSans-74"/>
      <use xlink:href="#DejaVuSans-72" transform="translate(39.208984 0)"/>
      <use xlink:href="#DejaVuSans-75" transform="translate(80.322266 0)"/>
      <use xlink:href="#DejaVuSans-65" transform="translate(143.701172 0)"/>
     </g>
    </g>
   </g>
   <g id="text_2">
    <g id="patch_37">
     <path d="M 345.981532 106.296799 
L 358.663959 117.088304 
Q 360.26332 118.449204 361.624219 116.849843 
L 366.014536 111.69024 
Q 367.375435 110.09088 365.776075 108.729981 
L 353.093648 97.938476 
Q 351.494287 96.577576 350.133388 98.176937 
L 345.743071 103.33654 
Q 344.382172 104.9359 345.981532 106.296799 
z
" clip-path="url(#p025cc2b383)" style="fill: #ffffff; stroke: #ffffff; stroke-linejoin: miter"/>
    </g>
    <g clip-path="url(#p025cc2b383)">
     <!-- false -->
     <g transform="translate(348.285846 103.588716) rotate(-319.605467) scale(0.07 -0.07)">
      <defs>
       <path id="DejaVuSans-66" d="M 2375 4863 
L 2375 4384 
L 1825 4384 
Q 1516 4384 1395 4259 
Q 1275 4134 1275 3809 
L 1275 3500 
L 2222 3500 
L 2222 3053 
L 1275 3053 
L 1275 0 
L 697 0 
L 697 3053 
L 147 3053 
L 147 3500 
L 697 3500 
L 697 3744 
Q 697 4328 969 4595 
Q 1241 4863 1831 4863 
L 2375 4863 
z
" transform="scale(0.015625)"/>
       <path id="DejaVuSans-61" d="M 2194 1759 
Q 1497 1759 1228 1600 
Q 959 1441 959 1056 
Q 959 750 1161 570 
Q 1363 391 1709 391 
Q 2188 391 2477 730 
Q 2766 1069 2766 1631 
L 2766 1759 
L 2194 1759 
z
M 3341 1997 
L 3341 0 
L 2766 0 
L 2766 531 
Q 2569 213 2275 61 
Q 1981 -91 1556 -91 
Q 1019 -91 701 211 
Q 384 513 384 1019 
Q 384 1609 779 1909 
Q 1175 2209 1959 2209 
L 2766 2209 
L 2766 2266 
Q 2766 2663 2505 2880 
Q 2244 3097 1772 3097 
Q 1472 3097 1187 3025 
Q 903 2953 641 2809 
L 641 3341 
Q 956 3463 1253 3523 
Q 1550 3584 1831 3584 
Q 2591 3584 2966 3190 
Q 3341 2797 3341 1997 
z
" transform="scale(0.015625)"/>
       <path id="DejaVuSans-6c" d="M 603 4863 
L 1178 4863 
L 1178 0 
L 603 0 
L 603 4863 
z
" transform="scale(0.015625)"/>
       <path id="DejaVuSans-73" d="M 2834 3397 
L 2834 2853 
Q 2591 2978 2328 3040 
Q 2066 3103 1784 3103 
Q 1356 3103 1142 2972 
Q 928 2841 928 2578 
Q 928 2378 1081 2264 
Q 1234 2150 1697 2047 
L 1894 2003 
Q 2506 1872 2764 1633 
Q 3022 1394 3022 966 
Q 3022 478 2636 193 
Q 2250 -91 1575 -91 
Q 1294 -91 989 -36 
Q 684 19 347 128 
L 347 722 
Q 666 556 975 473 
Q 1284 391 1588 391 
Q 1994 391 2212 530 
Q 2431 669 2431 922 
Q 2431 1156 2273 1281 
Q 2116 1406 1581 1522 
L 1381 1569 
Q 847 1681 609 1914 
Q 372 2147 372 2553 
Q 372 3047 722 3315 
Q 1072 3584 1716 3584 
Q 2034 3584 2315 3537 
Q 2597 3491 2834 3397 
z
" transform="scale(0.015625)"/>
      </defs>
      <use xlink:href="#DejaVuSans-66"/>
      <use xlink:href="#DejaVuSans-61" transform="translate(35.205078 0)"/>
      <use xlink:href="#DejaVuSans-6c" transform="translate(96.484375 0)"/>
      <use xlink:href="#DejaVuSans-73" transform="translate(124.267578 0)"/>
      <use xlink:href="#DejaVuSans-65" transform="translate(176.367188 0)"/>
     </g>
    </g>
   </g>
   <g id="text_3">
    <g id="patch_38">
     <path d="M 502.013529 202.876452 
L 509.291292 190.491123 
Q 510.355195 188.680568 508.54464 187.616664 
L 502.703714 184.184468 
Q 500.893159 183.120565 499.829255 184.93112 
L 492.551492 197.316449 
Q 491.487589 199.127004 493.298144 200.190907 
L 499.139071 203.623103 
Q 500.949626 204.687007 502.013529 202.876452 
z
" clip-path="url(#p025cc2b383)" style="fill: #ffffff; stroke: #ffffff; stroke-linejoin: miter"/>
    </g>
    <g clip-path="url(#p025cc2b383)">
     <!-- true -->
     <g transform="translate(498.947844 201.07502) rotate(-59.561011) scale(0.07 -0.07)">
      <use xlink:href="#DejaVuSans-74"/>
      <use xlink:href="#DejaVuSans-72" transform="translate(39.208984 0)"/>
      <use xlink:href="#DejaVuSans-75" transform="translate(80.322266 0)"/>
      <use xlink:href="#DejaVuSans-65" transform="translate(143.701172 0)"/>
     </g>
    </g>
   </g>
   <g id="text_4">
    <g id="patch_39">
     <path d="M 425.682059 218.439483 
L 439.447702 227.810056 
Q 441.183665 228.991763 442.365373 227.2558 
L 446.177611 221.655512 
Q 447.359318 219.919549 445.623356 218.737841 
L 431.857713 209.367269 
Q 430.12175 208.185561 428.940042 209.921524 
L 425.127804 215.521813 
Q 423.946096 217.257775 425.682059 218.439483 
z
" clip-path="url(#p025cc2b383)" style="fill: #ffffff; stroke: #ffffff; stroke-linejoin: miter"/>
    </g>
    <g clip-path="url(#p025cc2b383)">
     <!-- false -->
     <g transform="translate(427.682961 215.5001) rotate(-325.75603) scale(0.07 -0.07)">
      <use xlink:href="#DejaVuSans-66"/>
      <use xlink:href="#DejaVuSans-61" transform="translate(35.205078 0)"/>
      <use xlink:href="#DejaVuSans-6c" transform="translate(96.484375 0)"/>
      <use xlink:href="#DejaVuSans-73" transform="translate(124.267578 0)"/>
      <use xlink:href="#DejaVuSans-65" transform="translate(176.367188 0)"/>
     </g>
    </g>
   </g>
   <g id="text_5">
    <g id="patch_40">
     <path d="M 384.850207 163.877552 
L 388.899659 177.6603 
Q 389.49163 179.675138 391.506467 179.083167 
L 398.006417 177.173444 
Q 400.021255 176.581473 399.429284 174.566635 
L 395.379832 160.783887 
Q 394.787861 158.769049 392.773024 159.36102 
L 386.273074 161.270743 
Q 384.258236 161.862714 384.850207 163.877552 
z
" clip-path="url(#p025cc2b383)" style="fill: #ffffff; stroke: #ffffff; stroke-linejoin: miter"/>
    </g>
    <g clip-path="url(#p025cc2b383)">
     <!-- true -->
     <g transform="translate(388.261789 162.875209) rotate(-286.373094) scale(0.07 -0.07)">
      <use xlink:href="#DejaVuSans-74"/>
      <use xlink:href="#DejaVuSans-72" transform="translate(39.208984 0)"/>
      <use xlink:href="#DejaVuSans-75" transform="translate(80.322266 0)"/>
      <use xlink:href="#DejaVuSans-65" transform="translate(143.701172 0)"/>
     </g>
    </g>
   </g>
   <g id="text_6">
    <g id="patch_41">
     <path d="M 392.652049 216.205927 
L 401.088469 201.84879 
Q 402.152372 200.038235 400.341817 198.974332 
L 394.500891 195.542136 
Q 392.690336 194.478233 391.626433 196.288788 
L 383.190012 210.645924 
Q 382.126109 212.456479 383.936664 213.520383 
L 389.777591 216.952579 
Q 391.588146 218.016482 392.652049 216.205927 
z
" clip-path="url(#p025cc2b383)" style="fill: #ffffff; stroke: #ffffff; stroke-linejoin: miter"/>
    </g>
    <g clip-path="url(#p025cc2b383)">
     <!-- false -->
     <g transform="translate(389.586364 214.404495) rotate(-59.561011) scale(0.07 -0.07)">
      <use xlink:href="#DejaVuSans-66"/>
      <use xlink:href="#DejaVuSans-61" transform="translate(35.205078 0)"/>
      <use xlink:href="#DejaVuSans-6c" transform="translate(96.484375 0)"/>
      <use xlink:href="#DejaVuSans-73" transform="translate(124.267578 0)"/>
      <use xlink:href="#DejaVuSans-65" transform="translate(176.367188 0)"/>
     </g>
    </g>
   </g>
   <g id="text_7">
    <g id="patch_42">
     <path d="M 162.814522 474.803948 
L 189.587351 466.519927 
Q 191.593511 465.899183 190.972767 463.893023 
L 188.970221 457.421068 
Q 188.349477 455.414908 186.343317 456.035652 
L 159.570488 464.319673 
Q 157.564329 464.940417 158.185072 466.946577 
L 160.187618 473.418532 
Q 160.808362 475.424692 162.814522 474.803948 
z
" clip-path="url(#p025cc2b383)" style="fill: #ffffff; stroke: #ffffff; stroke-linejoin: miter"/>
    </g>
    <g clip-path="url(#p025cc2b383)">
     <!-- Simplify -->
     <g transform="translate(161.76346 471.40706) rotate(-17.19306) scale(0.07 -0.07)">
      <defs>
       <path id="DejaVuSans-53" d="M 3425 4513 
L 3425 3897 
Q 3066 4069 2747 4153 
Q 2428 4238 2131 4238 
Q 1616 4238 1336 4038 
Q 1056 3838 1056 3469 
Q 1056 3159 1242 3001 
Q 1428 2844 1947 2747 
L 2328 2669 
Q 3034 2534 3370 2195 
Q 3706 1856 3706 1288 
Q 3706 609 3251 259 
Q 2797 -91 1919 -91 
Q 1588 -91 1214 -16 
Q 841 59 441 206 
L 441 856 
Q 825 641 1194 531 
Q 1563 422 1919 422 
Q 2459 422 2753 634 
Q 3047 847 3047 1241 
Q 3047 1584 2836 1778 
Q 2625 1972 2144 2069 
L 1759 2144 
Q 1053 2284 737 2584 
Q 422 2884 422 3419 
Q 422 4038 858 4394 
Q 1294 4750 2059 4750 
Q 2388 4750 2728 4690 
Q 3069 4631 3425 4513 
z
" transform="scale(0.015625)"/>
       <path id="DejaVuSans-69" d="M 603 3500 
L 1178 3500 
L 1178 0 
L 603 0 
L 603 3500 
z
M 603 4863 
L 1178 4863 
L 1178 4134 
L 603 4134 
L 603 4863 
z
" transform="scale(0.015625)"/>
       <path id="DejaVuSans-6d" d="M 3328 2828 
Q 3544 3216 3844 3400 
Q 4144 3584 4550 3584 
Q 5097 3584 5394 3201 
Q 5691 2819 5691 2113 
L 5691 0 
L 5113 0 
L 5113 2094 
Q 5113 2597 4934 2840 
Q 4756 3084 4391 3084 
Q 3944 3084 3684 2787 
Q 3425 2491 3425 1978 
L 3425 0 
L 2847 0 
L 2847 2094 
Q 2847 2600 2669 2842 
Q 2491 3084 2119 3084 
Q 1678 3084 1418 2786 
Q 1159 2488 1159 1978 
L 1159 0 
L 581 0 
L 581 3500 
L 1159 3500 
L 1159 2956 
Q 1356 3278 1631 3431 
Q 1906 3584 2284 3584 
Q 2666 3584 2933 3390 
Q 3200 3197 3328 2828 
z
" transform="scale(0.015625)"/>
       <path id="DejaVuSans-70" d="M 1159 525 
L 1159 -1331 
L 581 -1331 
L 581 3500 
L 1159 3500 
L 1159 2969 
Q 1341 3281 1617 3432 
Q 1894 3584 2278 3584 
Q 2916 3584 3314 3078 
Q 3713 2572 3713 1747 
Q 3713 922 3314 415 
Q 2916 -91 2278 -91 
Q 1894 -91 1617 61 
Q 1341 213 1159 525 
z
M 3116 1747 
Q 3116 2381 2855 2742 
Q 2594 3103 2138 3103 
Q 1681 3103 1420 2742 
Q 1159 2381 1159 1747 
Q 1159 1113 1420 752 
Q 1681 391 2138 391 
Q 2594 391 2855 752 
Q 3116 1113 3116 1747 
z
" transform="scale(0.015625)"/>
       <path id="DejaVuSans-79" d="M 2059 -325 
Q 1816 -950 1584 -1140 
Q 1353 -1331 966 -1331 
L 506 -1331 
L 506 -850 
L 844 -850 
Q 1081 -850 1212 -737 
Q 1344 -625 1503 -206 
L 1606 56 
L 191 3500 
L 800 3500 
L 1894 763 
L 2988 3500 
L 3597 3500 
L 2059 -325 
z
" transform="scale(0.015625)"/>
      </defs>
      <use xlink:href="#DejaVuSans-53"/>
      <use xlink:href="#DejaVuSans-69" transform="translate(63.476562 0)"/>
      <use xlink:href="#DejaVuSans-6d" transform="translate(91.259766 0)"/>
      <use xlink:href="#DejaVuSans-70" transform="translate(188.671875 0)"/>
      <use xlink:href="#DejaVuSans-6c" transform="translate(252.148438 0)"/>
      <use xlink:href="#DejaVuSans-69" transform="translate(279.931641 0)"/>
      <use xlink:href="#DejaVuSans-66" transform="translate(307.714844 0)"/>
      <use xlink:href="#DejaVuSans-79" transform="translate(341.169922 0)"/>
     </g>
    </g>
   </g>
   <g id="text_8">
    <g id="patch_43">
     <path d="M 464.793494 434.295387 
L 479.655538 433.45231 
Q 481.752167 433.333375 481.633232 431.236746 
L 481.249542 424.472932 
Q 481.130607 422.376303 479.033978 422.495238 
L 464.171934 423.338314 
Q 462.075304 423.45725 462.19424 425.553879 
L 462.577929 432.317692 
Q 462.696864 434.414322 464.793494 434.295387 
z
" clip-path="url(#p025cc2b383)" style="fill: #ffffff; stroke: #ffffff; stroke-linejoin: miter"/>
    </g>
    <g clip-path="url(#p025cc2b383)">
     <!-- Skip -->
     <g transform="translate(464.592109 430.745313) rotate(-3.246727) scale(0.07 -0.07)">
      <defs>
       <path id="DejaVuSans-6b" d="M 581 4863 
L 1159 4863 
L 1159 1991 
L 2875 3500 
L 3609 3500 
L 1753 1863 
L 3688 0 
L 2938 0 
L 1159 1709 
L 1159 0 
L 581 0 
L 581 4863 
z
" transform="scale(0.015625)"/>
      </defs>
      <use xlink:href="#DejaVuSans-53"/>
      <use xlink:href="#DejaVuSans-6b" transform="translate(63.476562 0)"/>
      <use xlink:href="#DejaVuSans-69" transform="translate(121.386719 0)"/>
      <use xlink:href="#DejaVuSans-70" transform="translate(149.169922 0)"/>
     </g>
    </g>
   </g>
   <g id="text_9">
    <g id="patch_44">
     <path d="M 234.81014 418.314532 
L 249.923661 444.034788 
Q 250.987564 445.845343 252.798119 444.78144 
L 258.639045 441.349244 
Q 260.449601 440.285341 259.385697 438.474786 
L 244.272176 412.75453 
Q 243.208273 410.943974 241.397718 412.007878 
L 235.556792 415.440074 
Q 233.746236 416.503977 234.81014 418.314532 
z
" clip-path="url(#p025cc2b383)" style="fill: #ffffff; stroke: #ffffff; stroke-linejoin: miter"/>
    </g>
    <g clip-path="url(#p025cc2b383)">
     <!-- Get help -->
     <g transform="translate(237.875824 416.5131) rotate(-300.438989) scale(0.07 -0.07)">
      <defs>
       <path id="DejaVuSans-47" d="M 3809 666 
L 3809 1919 
L 2778 1919 
L 2778 2438 
L 4434 2438 
L 4434 434 
Q 4069 175 3628 42 
Q 3188 -91 2688 -91 
Q 1594 -91 976 548 
Q 359 1188 359 2328 
Q 359 3472 976 4111 
Q 1594 4750 2688 4750 
Q 3144 4750 3555 4637 
Q 3966 4525 4313 4306 
L 4313 3634 
Q 3963 3931 3569 4081 
Q 3175 4231 2741 4231 
Q 1884 4231 1454 3753 
Q 1025 3275 1025 2328 
Q 1025 1384 1454 906 
Q 1884 428 2741 428 
Q 3075 428 3337 486 
Q 3600 544 3809 666 
z
" transform="scale(0.015625)"/>
       <path id="DejaVuSans-20" transform="scale(0.015625)"/>
       <path id="DejaVuSans-68" d="M 3513 2113 
L 3513 0 
L 2938 0 
L 2938 2094 
Q 2938 2591 2744 2837 
Q 2550 3084 2163 3084 
Q 1697 3084 1428 2787 
Q 1159 2491 1159 1978 
L 1159 0 
L 581 0 
L 581 4863 
L 1159 4863 
L 1159 2956 
Q 1366 3272 1645 3428 
Q 1925 3584 2291 3584 
Q 2894 3584 3203 3211 
Q 3513 2838 3513 2113 
z
" transform="scale(0.015625)"/>
      </defs>
      <use xlink:href="#DejaVuSans-47"/>
      <use xlink:href="#DejaVuSans-65" transform="translate(77.490234 0)"/>
      <use xlink:href="#DejaVuSans-74" transform="translate(139.013672 0)"/>
      <use xlink:href="#DejaVuSans-20" transform="translate(178.222656 0)"/>
      <use xlink:href="#DejaVuSans-68" transform="translate(210.009766 0)"/>
      <use xlink:href="#DejaVuSans-65" transform="translate(273.388672 0)"/>
      <use xlink:href="#DejaVuSans-6c" transform="translate(334.912109 0)"/>
      <use xlink:href="#DejaVuSans-70" transform="translate(362.695312 0)"/>
     </g>
    </g>
   </g>
   <g id="text_10">
    <g id="patch_45">
     <path d="M 359.050495 364.594066 
L 374.036736 352.692363 
Q 375.681222 351.386353 374.375211 349.741866 
L 370.161966 344.436684 
Q 368.855956 342.792197 367.211469 344.098208 
L 352.225229 355.999911 
Q 350.580742 357.305922 351.886753 358.950408 
L 356.099998 364.25559 
Q 357.406009 365.900077 359.050495 364.594066 
z
" clip-path="url(#p025cc2b383)" style="fill: #ffffff; stroke: #ffffff; stroke-linejoin: miter"/>
    </g>
    <g clip-path="url(#p025cc2b383)">
     <!-- Abort -->
     <g transform="translate(356.83912 361.809574) rotate(-38.455737) scale(0.07 -0.07)">
      <defs>
       <path id="DejaVuSans-41" d="M 2188 4044 
L 1331 1722 
L 3047 1722 
L 2188 4044 
z
M 1831 4666 
L 2547 4666 
L 4325 0 
L 3669 0 
L 3244 1197 
L 1141 1197 
L 716 0 
L 50 0 
L 1831 4666 
z
" transform="scale(0.015625)"/>
       <path id="DejaVuSans-62" d="M 3116 1747 
Q 3116 2381 2855 2742 
Q 2594 3103 2138 3103 
Q 1681 3103 1420 2742 
Q 1159 2381 1159 1747 
Q 1159 1113 1420 752 
Q 1681 391 2138 391 
Q 2594 391 2855 752 
Q 3116 1113 3116 1747 
z
M 1159 2969 
Q 1341 3281 1617 3432 
Q 1894 3584 2278 3584 
Q 2916 3584 3314 3078 
Q 3713 2572 3713 1747 
Q 3713 922 3314 415 
Q 2916 -91 2278 -91 
Q 1894 -91 1617 61 
Q 1341 213 1159 525 
L 1159 0 
L 581 0 
L 581 4863 
L 1159 4863 
L 1159 2969 
z
" transform="scale(0.015625)"/>
       <path id="DejaVuSans-6f" d="M 1959 3097 
Q 1497 3097 1228 2736 
Q 959 2375 959 1747 
Q 959 1119 1226 758 
Q 1494 397 1959 397 
Q 2419 397 2687 759 
Q 2956 1122 2956 1747 
Q 2956 2369 2687 2733 
Q 2419 3097 1959 3097 
z
M 1959 3584 
Q 2709 3584 3137 3096 
Q 3566 2609 3566 1747 
Q 3566 888 3137 398 
Q 2709 -91 1959 -91 
Q 1206 -91 779 398 
Q 353 888 353 1747 
Q 353 2609 779 3096 
Q 1206 3584 1959 3584 
z
" transform="scale(0.015625)"/>
      </defs>
      <use xlink:href="#DejaVuSans-41"/>
      <use xlink:href="#DejaVuSans-62" transform="translate(68.408203 0)"/>
      <use xlink:href="#DejaVuSans-6f" transform="translate(131.884766 0)"/>
      <use xlink:href="#DejaVuSans-72" transform="translate(193.066406 0)"/>
      <use xlink:href="#DejaVuSans-74" transform="translate(234.179688 0)"/>
     </g>
    </g>
   </g>
   <g id="text_11">
    <g id="patch_46">
     <path d="M 615.836492 301.567779 
L 623.114255 313.953108 
Q 624.178158 315.763663 625.988713 314.69976 
L 631.829639 311.267564 
Q 633.640194 310.20366 632.576291 308.393105 
L 625.298528 296.007777 
Q 624.234625 294.197221 622.42407 295.261125 
L 616.583144 298.693321 
Q 614.772588 299.757224 615.836492 301.567779 
z
" clip-path="url(#p025cc2b383)" style="fill: #ffffff; stroke: #ffffff; stroke-linejoin: miter"/>
    </g>
    <g clip-path="url(#p025cc2b383)">
     <!-- true -->
     <g transform="translate(618.902176 299.766347) rotate(-300.438989) scale(0.07 -0.07)">
      <use xlink:href="#DejaVuSans-74"/>
      <use xlink:href="#DejaVuSans-72" transform="translate(39.208984 0)"/>
      <use xlink:href="#DejaVuSans-75" transform="translate(80.322266 0)"/>
      <use xlink:href="#DejaVuSans-65" transform="translate(143.701172 0)"/>
     </g>
    </g>
   </g>
   <g id="text_12">
    <g id="patch_47">
     <path d="M 553.449846 197.920031 
L 553.449846 214.572375 
Q 553.449846 216.672375 555.549846 216.672375 
L 562.324534 216.672375 
Q 564.424534 216.672375 564.424534 214.572375 
L 564.424534 197.920031 
Q 564.424534 195.820031 562.324534 195.820031 
L 555.549846 195.820031 
Q 553.449846 195.820031 553.449846 197.920031 
z
" clip-path="url(#p025cc2b383)" style="fill: #ffffff; stroke: #ffffff; stroke-linejoin: miter"/>
    </g>
    <g clip-path="url(#p025cc2b383)">
     <!-- false -->
     <g transform="translate(557.005628 197.920031) rotate(-270) scale(0.07 -0.07)">
      <use xlink:href="#DejaVuSans-66"/>
      <use xlink:href="#DejaVuSans-61" transform="translate(35.205078 0)"/>
      <use xlink:href="#DejaVuSans-6c" transform="translate(96.484375 0)"/>
      <use xlink:href="#DejaVuSans-73" transform="translate(124.267578 0)"/>
      <use xlink:href="#DejaVuSans-65" transform="translate(176.367188 0)"/>
     </g>
    </g>
   </g>
   <g id="text_13">
    <g id="patch_48">
     <path d="M 697.819012 412.684129 
L 705.096775 400.2988 
Q 706.160678 398.488245 704.350123 397.424342 
L 698.509196 393.992146 
Q 696.698641 392.928242 695.634738 394.738798 
L 688.356975 407.124126 
Q 687.293072 408.934682 689.103627 409.998585 
L 694.944553 413.430781 
Q 696.755108 414.494684 697.819012 412.684129 
z
" clip-path="url(#p025cc2b383)" style="fill: #ffffff; stroke: #ffffff; stroke-linejoin: miter"/>
    </g>
    <g clip-path="url(#p025cc2b383)">
     <!-- true -->
     <g transform="translate(694.753327 410.882697) rotate(-59.561011) scale(0.07 -0.07)">
      <use xlink:href="#DejaVuSans-74"/>
      <use xlink:href="#DejaVuSans-72" transform="translate(39.208984 0)"/>
      <use xlink:href="#DejaVuSans-75" transform="translate(80.322266 0)"/>
      <use xlink:href="#DejaVuSans-65" transform="translate(143.701172 0)"/>
     </g>
    </g>
   </g>
   <g id="text_14">
    <g id="patch_49">
     <path d="M 607.823581 407.724659 
L 624.239901 410.518396 
Q 626.310137 410.870709 626.662451 408.800474 
L 627.799029 402.121808 
Q 628.151342 400.051572 626.081107 399.699258 
L 609.664786 396.905522 
Q 607.594551 396.553208 607.242237 398.623444 
L 606.105659 405.30211 
Q 605.753345 407.372345 607.823581 407.724659 
z
" clip-path="url(#p025cc2b383)" style="fill: #ffffff; stroke: #ffffff; stroke-linejoin: miter"/>
    </g>
    <g clip-path="url(#p025cc2b383)">
     <!-- false -->
     <g transform="translate(608.420128 404.219276) rotate(-350.341907) scale(0.07 -0.07)">
      <use xlink:href="#DejaVuSans-66"/>
      <use xlink:href="#DejaVuSans-61" transform="translate(35.205078 0)"/>
      <use xlink:href="#DejaVuSans-6c" transform="translate(96.484375 0)"/>
      <use xlink:href="#DejaVuSans-73" transform="translate(124.267578 0)"/>
      <use xlink:href="#DejaVuSans-65" transform="translate(176.367188 0)"/>
     </g>
    </g>
   </g>
   <g id="text_15">
    <g id="patch_50">
     <path d="M 499.802399 326.249213 
L 507.080162 338.634542 
Q 508.144065 340.445097 509.95462 339.381194 
L 515.795547 335.948998 
Q 517.606102 334.885095 516.542198 333.07454 
L 509.264436 320.689211 
Q 508.200532 318.878656 506.389977 319.942559 
L 500.549051 323.374755 
Q 498.738496 324.438658 499.802399 326.249213 
z
" clip-path="url(#p025cc2b383)" style="fill: #ffffff; stroke: #ffffff; stroke-linejoin: miter"/>
    </g>
    <g clip-path="url(#p025cc2b383)">
     <!-- true -->
     <g transform="translate(502.868084 324.447781) rotate(-300.438989) scale(0.07 -0.07)">
      <use xlink:href="#DejaVuSans-74"/>
      <use xlink:href="#DejaVuSans-72" transform="translate(39.208984 0)"/>
      <use xlink:href="#DejaVuSans-75" transform="translate(80.322266 0)"/>
      <use xlink:href="#DejaVuSans-65" transform="translate(143.701172 0)"/>
     </g>
    </g>
   </g>
   <g id="text_16">
    <g id="patch_51">
     <path d="M 509.93745 346.019205 
L 509.93745 362.671549 
Q 509.93745 364.771549 512.03745 364.771549 
L 518.812137 364.771549 
Q 520.912137 364.771549 520.912137 362.671549 
L 520.912137 346.019205 
Q 520.912137 343.919205 518.812137 343.919205 
L 512.03745 343.919205 
Q 509.93745 343.919205 509.93745 346.019205 
z
" clip-path="url(#p025cc2b383)" style="fill: #ffffff; stroke: #ffffff; stroke-linejoin: miter"/>
    </g>
    <g clip-path="url(#p025cc2b383)">
     <!-- false -->
     <g transform="translate(513.493231 346.019205) rotate(-270) scale(0.07 -0.07)">
      <use xlink:href="#DejaVuSans-66"/>
      <use xlink:href="#DejaVuSans-61" transform="translate(35.205078 0)"/>
      <use xlink:href="#DejaVuSans-6c" transform="translate(96.484375 0)"/>
      <use xlink:href="#DejaVuSans-73" transform="translate(124.267578 0)"/>
      <use xlink:href="#DejaVuSans-65" transform="translate(176.367188 0)"/>
     </g>
    </g>
   </g>
   <g id="PathCollection_1">
    <defs>
     <path id="C0_0_3ed52bdfbb" d="M 0 22.36068 
C 5.930122 22.36068 11.618159 20.004617 15.811388 15.811388 
C 20.004617 11.618159 22.36068 5.930122 22.36068 -0 
C 22.36068 -5.930122 20.004617 -11.618159 15.811388 -15.811388 
C 11.618159 -20.004617 5.930122 -22.36068 0 -22.36068 
C -5.930122 -22.36068 -11.618159 -20.004617 -15.811388 -15.811388 
C -20.004617 -11.618159 -22.36068 -5.930122 -22.36068 0 
C -22.36068 5.930122 -20.004617 11.618159 -15.811388 15.811388 
C -11.618159 20.004617 -5.930122 22.36068 0 22.36068 
z
"/>
    </defs>
    <g clip-path="url(#p025cc2b383)">
     <use xlink:href="#C0_0_3ed52bdfbb" x="80.300826" y="514.786573" style="fill: #e3f2fd; stroke: #e3f2fd"/>
    </g>
    <g clip-path="url(#p025cc2b383)">
     <use xlink:href="#C0_0_3ed52bdfbb" x="776.499174" y="514.786573" style="fill: #e3f2fd; stroke: #e3f2fd"/>
    </g>
    <g clip-path="url(#p025cc2b383)">
     <use xlink:href="#C0_0_3ed52bdfbb" x="747.490909" y="465.420182" style="fill: #eceff1; stroke: #eceff1"/>
    </g>
    <g clip-path="url(#p025cc2b383)">
     <use xlink:href="#C0_0_3ed52bdfbb" x="94.804959" y="490.103377" style="fill: #e3f2fd; stroke: #e3f2fd"/>
    </g>
    <g clip-path="url(#p025cc2b383)">
     <use xlink:href="#C0_0_3ed52bdfbb" x="341.375207" y="70.489052" style="fill: #e8f5e9; stroke: #e8f5e9"/>
    </g>
    <g clip-path="url(#p025cc2b383)">
     <use xlink:href="#C0_0_3ed52bdfbb" x="370.383471" y="119.855443" style="fill: #fff3e0; stroke: #fff3e0"/>
    </g>
    <g clip-path="url(#p025cc2b383)">
     <use xlink:href="#C0_0_3ed52bdfbb" x="341.375207" y="95.172248" style="fill: #e3f2fd; stroke: #e3f2fd"/>
    </g>
    <g clip-path="url(#p025cc2b383)">
     <use xlink:href="#C0_0_3ed52bdfbb" x="384.887603" y="144.538639" style="fill: #e3f2fd; stroke: #e3f2fd"/>
    </g>
    <g clip-path="url(#p025cc2b383)">
     <use xlink:href="#C0_0_3ed52bdfbb" x="399.391736" y="119.855443" style="fill: #e8f5e9; stroke: #e8f5e9"/>
    </g>
    <g clip-path="url(#p025cc2b383)">
     <use xlink:href="#C0_0_3ed52bdfbb" x="471.912397" y="243.271421" style="fill: #fff3e0; stroke: #fff3e0"/>
    </g>
    <g clip-path="url(#p025cc2b383)">
     <use xlink:href="#C0_0_3ed52bdfbb" x="399.391736" y="193.90503" style="fill: #fff3e0; stroke: #fff3e0"/>
    </g>
    <g clip-path="url(#p025cc2b383)">
     <use xlink:href="#C0_0_3ed52bdfbb" x="384.887603" y="218.588226" style="fill: #ffebee; stroke: #ffebee"/>
    </g>
    <g clip-path="url(#p025cc2b383)">
     <use xlink:href="#C0_0_3ed52bdfbb" x="254.350413" y="440.736986" style="fill: #fff3e0; stroke: #fff3e0"/>
    </g>
    <g clip-path="url(#p025cc2b383)">
     <use xlink:href="#C0_0_3ed52bdfbb" x="239.846281" y="416.05379" style="fill: #ffebee; stroke: #ffebee"/>
    </g>
    <g clip-path="url(#p025cc2b383)">
     <use xlink:href="#C0_0_3ed52bdfbb" x="529.928926" y="144.538639" style="fill: #e3f2fd; stroke: #e3f2fd"/>
    </g>
    <g clip-path="url(#p025cc2b383)">
     <use xlink:href="#C0_0_3ed52bdfbb" x="544.433058" y="169.221835" style="fill: #e8f5e9; stroke: #e8f5e9"/>
    </g>
    <g clip-path="url(#p025cc2b383)">
     <use xlink:href="#C0_0_3ed52bdfbb" x="558.93719" y="193.90503" style="fill: #fff3e0; stroke: #fff3e0"/>
    </g>
    <g clip-path="url(#p025cc2b383)">
     <use xlink:href="#C0_0_3ed52bdfbb" x="558.93719" y="218.588226" style="fill: #e3f2fd; stroke: #e3f2fd"/>
    </g>
    <g clip-path="url(#p025cc2b383)">
     <use xlink:href="#C0_0_3ed52bdfbb" x="689.47438" y="416.05379" style="fill: #fff3e0; stroke: #fff3e0"/>
    </g>
    <g clip-path="url(#p025cc2b383)">
     <use xlink:href="#C0_0_3ed52bdfbb" x="703.978512" y="391.370595" style="fill: #eceff1; stroke: #eceff1"/>
    </g>
    <g clip-path="url(#p025cc2b383)">
     <use xlink:href="#C0_0_3ed52bdfbb" x="544.433058" y="391.370595" style="fill: #e8f5e9; stroke: #e8f5e9"/>
    </g>
    <g clip-path="url(#p025cc2b383)">
     <use xlink:href="#C0_0_3ed52bdfbb" x="515.424793" y="342.004204" style="fill: #fff3e0; stroke: #fff3e0"/>
    </g>
    <g clip-path="url(#p025cc2b383)">
     <use xlink:href="#C0_0_3ed52bdfbb" x="515.424793" y="366.687399" style="fill: #e3f2fd; stroke: #e3f2fd"/>
    </g>
    <g clip-path="url(#p025cc2b383)">
     <use xlink:href="#C0_0_3ed52bdfbb" x="500.920661" y="317.321008" style="fill: #e3f2fd; stroke: #e3f2fd"/>
    </g>
    <g clip-path="url(#p025cc2b383)">
     <use xlink:href="#C0_0_3ed52bdfbb" x="486.416529" y="292.637812" style="fill: #eceff1; stroke: #eceff1"/>
    </g>
    <g clip-path="url(#p025cc2b383)">
     <use xlink:href="#C0_0_3ed52bdfbb" x="471.912397" y="267.954617" style="fill: #eceff1; stroke: #eceff1"/>
    </g>
   </g>
   <g id="text_17">
    <g clip-path="url(#p025cc2b383)">
     <!-- analyze_feature -->
     <g transform="translate(48.384576 516.882823) scale(0.08 -0.08)">
      <defs>
       <path id="DejaVuSans-6e" d="M 3513 2113 
L 3513 0 
L 2938 0 
L 2938 2094 
Q 2938 2591 2744 2837 
Q 2550 3084 2163 3084 
Q 1697 3084 1428 2787 
Q 1159 2491 1159 1978 
L 1159 0 
L 581 0 
L 581 3500 
L 1159 3500 
L 1159 2956 
Q 1366 3272 1645 3428 
Q 1925 3584 2291 3584 
Q 2894 3584 3203 3211 
Q 3513 2838 3513 2113 
z
" transform="scale(0.015625)"/>
       <path id="DejaVuSans-7a" d="M 353 3500 
L 3084 3500 
L 3084 2975 
L 922 459 
L 3084 459 
L 3084 0 
L 275 0 
L 275 525 
L 2438 3041 
L 353 3041 
L 353 3500 
z
" transform="scale(0.015625)"/>
       <path id="DejaVuSans-5f" d="M 3263 -1063 
L 3263 -1509 
L -63 -1509 
L -63 -1063 
L 3263 -1063 
z
" transform="scale(0.015625)"/>
      </defs>
      <use xlink:href="#DejaVuSans-61"/>
      <use xlink:href="#DejaVuSans-6e" transform="translate(61.279297 0)"/>
      <use xlink:href="#DejaVuSans-61" transform="translate(124.658203 0)"/>
      <use xlink:href="#DejaVuSans-6c" transform="translate(185.9375 0)"/>
      <use xlink:href="#DejaVuSans-79" transform="translate(213.720703 0)"/>
      <use xlink:href="#DejaVuSans-7a" transform="translate(272.900391 0)"/>
      <use xlink:href="#DejaVuSans-65" transform="translate(325.390625 0)"/>
      <use xlink:href="#DejaVuSans-5f" transform="translate(386.914062 0)"/>
      <use xlink:href="#DejaVuSans-66" transform="translate(436.914062 0)"/>
      <use xlink:href="#DejaVuSans-65" transform="translate(472.119141 0)"/>
      <use xlink:href="#DejaVuSans-61" transform="translate(533.642578 0)"/>
      <use xlink:href="#DejaVuSans-74" transform="translate(594.921875 0)"/>
      <use xlink:href="#DejaVuSans-75" transform="translate(634.130859 0)"/>
      <use xlink:href="#DejaVuSans-72" transform="translate(697.509766 0)"/>
      <use xlink:href="#DejaVuSans-65" transform="translate(736.373047 0)"/>
     </g>
    </g>
   </g>
   <g id="text_18">
    <g clip-path="url(#p025cc2b383)">
     <!-- define_tests -->
     <g transform="translate(752.217924 516.882823) scale(0.08 -0.08)">
      <defs>
       <path id="DejaVuSans-64" d="M 2906 2969 
L 2906 4863 
L 3481 4863 
L 3481 0 
L 2906 0 
L 2906 525 
Q 2725 213 2448 61 
Q 2172 -91 1784 -91 
Q 1150 -91 751 415 
Q 353 922 353 1747 
Q 353 2572 751 3078 
Q 1150 3584 1784 3584 
Q 2172 3584 2448 3432 
Q 2725 3281 2906 2969 
z
M 947 1747 
Q 947 1113 1208 752 
Q 1469 391 1925 391 
Q 2381 391 2643 752 
Q 2906 1113 2906 1747 
Q 2906 2381 2643 2742 
Q 2381 3103 1925 3103 
Q 1469 3103 1208 2742 
Q 947 2381 947 1747 
z
" transform="scale(0.015625)"/>
      </defs>
      <use xlink:href="#DejaVuSans-64"/>
      <use xlink:href="#DejaVuSans-65" transform="translate(63.476562 0)"/>
      <use xlink:href="#DejaVuSans-66" transform="translate(125 0)"/>
      <use xlink:href="#DejaVuSans-69" transform="translate(160.205078 0)"/>
      <use xlink:href="#DejaVuSans-6e" transform="translate(187.988281 0)"/>
      <use xlink:href="#DejaVuSans-65" transform="translate(251.367188 0)"/>
      <use xlink:href="#DejaVuSans-5f" transform="translate(312.890625 0)"/>
      <use xlink:href="#DejaVuSans-74" transform="translate(362.890625 0)"/>
      <use xlink:href="#DejaVuSans-65" transform="translate(402.099609 0)"/>
      <use xlink:href="#DejaVuSans-73" transform="translate(463.623047 0)"/>
      <use xlink:href="#DejaVuSans-74" transform="translate(515.722656 0)"/>
      <use xlink:href="#DejaVuSans-73" transform="translate(554.931641 0)"/>
     </g>
    </g>
   </g>
   <g id="text_19">
    <g clip-path="url(#p025cc2b383)">
     <!-- start_tdd_cycle -->
     <g transform="translate(717.189659 467.516432) scale(0.08 -0.08)">
      <defs>
       <path id="DejaVuSans-63" d="M 3122 3366 
L 3122 2828 
Q 2878 2963 2633 3030 
Q 2388 3097 2138 3097 
Q 1578 3097 1268 2742 
Q 959 2388 959 1747 
Q 959 1106 1268 751 
Q 1578 397 2138 397 
Q 2388 397 2633 464 
Q 2878 531 3122 666 
L 3122 134 
Q 2881 22 2623 -34 
Q 2366 -91 2075 -91 
Q 1284 -91 818 406 
Q 353 903 353 1747 
Q 353 2603 823 3093 
Q 1294 3584 2113 3584 
Q 2378 3584 2631 3529 
Q 2884 3475 3122 3366 
z
" transform="scale(0.015625)"/>
      </defs>
      <use xlink:href="#DejaVuSans-73"/>
      <use xlink:href="#DejaVuSans-74" transform="translate(52.099609 0)"/>
      <use xlink:href="#DejaVuSans-61" transform="translate(91.308594 0)"/>
      <use xlink:href="#DejaVuSans-72" transform="translate(152.587891 0)"/>
      <use xlink:href="#DejaVuSans-74" transform="translate(193.701172 0)"/>
      <use xlink:href="#DejaVuSans-5f" transform="translate(232.910156 0)"/>
      <use xlink:href="#DejaVuSans-74" transform="translate(282.910156 0)"/>
      <use xlink:href="#DejaVuSans-64" transform="translate(322.119141 0)"/>
      <use xlink:href="#DejaVuSans-64" transform="translate(385.595703 0)"/>
      <use xlink:href="#DejaVuSans-5f" transform="translate(449.072266 0)"/>
      <use xlink:href="#DejaVuSans-63" transform="translate(499.072266 0)"/>
      <use xlink:href="#DejaVuSans-79" transform="translate(554.052734 0)"/>
      <use xlink:href="#DejaVuSans-63" transform="translate(613.232422 0)"/>
      <use xlink:href="#DejaVuSans-6c" transform="translate(668.212891 0)"/>
      <use xlink:href="#DejaVuSans-65" transform="translate(695.996094 0)"/>
     </g>
    </g>
   </g>
   <g id="text_20">
    <g clip-path="url(#p025cc2b383)">
     <!-- write_test -->
     <g transform="translate(75.067459 492.199627) scale(0.08 -0.08)">
      <defs>
       <path id="DejaVuSans-77" d="M 269 3500 
L 844 3500 
L 1563 769 
L 2278 3500 
L 2956 3500 
L 3675 769 
L 4391 3500 
L 4966 3500 
L 4050 0 
L 3372 0 
L 2619 2869 
L 1863 0 
L 1184 0 
L 269 3500 
z
" transform="scale(0.015625)"/>
      </defs>
      <use xlink:href="#DejaVuSans-77"/>
      <use xlink:href="#DejaVuSans-72" transform="translate(81.787109 0)"/>
      <use xlink:href="#DejaVuSans-69" transform="translate(122.900391 0)"/>
      <use xlink:href="#DejaVuSans-74" transform="translate(150.683594 0)"/>
      <use xlink:href="#DejaVuSans-65" transform="translate(189.892578 0)"/>
      <use xlink:href="#DejaVuSans-5f" transform="translate(251.416016 0)"/>
      <use xlink:href="#DejaVuSans-74" transform="translate(301.416016 0)"/>
      <use xlink:href="#DejaVuSans-65" transform="translate(340.625 0)"/>
      <use xlink:href="#DejaVuSans-73" transform="translate(402.148438 0)"/>
      <use xlink:href="#DejaVuSans-74" transform="translate(454.248047 0)"/>
     </g>
    </g>
   </g>
   <g id="text_21">
    <g clip-path="url(#p025cc2b383)">
     <!-- verify_red -->
     <g transform="translate(321.530207 72.585302) scale(0.08 -0.08)">
      <defs>
       <path id="DejaVuSans-76" d="M 191 3500 
L 800 3500 
L 1894 563 
L 2988 3500 
L 3597 3500 
L 2284 0 
L 1503 0 
L 191 3500 
z
" transform="scale(0.015625)"/>
      </defs>
      <use xlink:href="#DejaVuSans-76"/>
      <use xlink:href="#DejaVuSans-65" transform="translate(59.179688 0)"/>
      <use xlink:href="#DejaVuSans-72" transform="translate(120.703125 0)"/>
      <use xlink:href="#DejaVuSans-69" transform="translate(161.816406 0)"/>
      <use xlink:href="#DejaVuSans-66" transform="translate(189.599609 0)"/>
      <use xlink:href="#DejaVuSans-79" transform="translate(223.054688 0)"/>
      <use xlink:href="#DejaVuSans-5f" transform="translate(282.234375 0)"/>
      <use xlink:href="#DejaVuSans-72" transform="translate(332.234375 0)"/>
      <use xlink:href="#DejaVuSans-65" transform="translate(371.097656 0)"/>
      <use xlink:href="#DejaVuSans-64" transform="translate(432.621094 0)"/>
     </g>
    </g>
   </g>
   <g id="text_22">
    <g clip-path="url(#p025cc2b383)">
     <!-- check_red -->
     <g transform="translate(350.117221 121.951693) scale(0.08 -0.08)">
      <use xlink:href="#DejaVuSans-63"/>
      <use xlink:href="#DejaVuSans-68" transform="translate(54.980469 0)"/>
      <use xlink:href="#DejaVuSans-65" transform="translate(118.359375 0)"/>
      <use xlink:href="#DejaVuSans-63" transform="translate(179.882812 0)"/>
      <use xlink:href="#DejaVuSans-6b" transform="translate(234.863281 0)"/>
      <use xlink:href="#DejaVuSans-5f" transform="translate(292.773438 0)"/>
      <use xlink:href="#DejaVuSans-72" transform="translate(342.773438 0)"/>
      <use xlink:href="#DejaVuSans-65" transform="translate(381.636719 0)"/>
      <use xlink:href="#DejaVuSans-64" transform="translate(443.160156 0)"/>
     </g>
    </g>
   </g>
   <g id="text_23">
    <g clip-path="url(#p025cc2b383)">
     <!-- fix_test -->
     <g transform="translate(326.807082 97.268498) scale(0.08 -0.08)">
      <defs>
       <path id="DejaVuSans-78" d="M 3513 3500 
L 2247 1797 
L 3578 0 
L 2900 0 
L 1881 1375 
L 863 0 
L 184 0 
L 1544 1831 
L 300 3500 
L 978 3500 
L 1906 2253 
L 2834 3500 
L 3513 3500 
z
" transform="scale(0.015625)"/>
      </defs>
      <use xlink:href="#DejaVuSans-66"/>
      <use xlink:href="#DejaVuSans-69" transform="translate(35.205078 0)"/>
      <use xlink:href="#DejaVuSans-78" transform="translate(62.988281 0)"/>
      <use xlink:href="#DejaVuSans-5f" transform="translate(122.167969 0)"/>
      <use xlink:href="#DejaVuSans-74" transform="translate(172.167969 0)"/>
      <use xlink:href="#DejaVuSans-65" transform="translate(211.376953 0)"/>
      <use xlink:href="#DejaVuSans-73" transform="translate(272.900391 0)"/>
      <use xlink:href="#DejaVuSans-74" transform="translate(325 0)"/>
     </g>
    </g>
   </g>
   <g id="text_24">
    <g clip-path="url(#p025cc2b383)">
     <!-- implement_minimum -->
     <g transform="translate(342.326353 146.634889) scale(0.08 -0.08)">
      <use xlink:href="#DejaVuSans-69"/>
      <use xlink:href="#DejaVuSans-6d" transform="translate(27.783203 0)"/>
      <use xlink:href="#DejaVuSans-70" transform="translate(125.195312 0)"/>
      <use xlink:href="#DejaVuSans-6c" transform="translate(188.671875 0)"/>
      <use xlink:href="#DejaVuSans-65" transform="translate(216.455078 0)"/>
      <use xlink:href="#DejaVuSans-6d" transform="translate(277.978516 0)"/>
      <use xlink:href="#DejaVuSans-65" transform="translate(375.390625 0)"/>
      <use xlink:href="#DejaVuSans-6e" transform="translate(436.914062 0)"/>
      <use xlink:href="#DejaVuSans-74" transform="translate(500.292969 0)"/>
      <use xlink:href="#DejaVuSans-5f" transform="translate(539.501953 0)"/>
      <use xlink:href="#DejaVuSans-6d" transform="translate(589.501953 0)"/>
      <use xlink:href="#DejaVuSans-69" transform="translate(686.914062 0)"/>
      <use xlink:href="#DejaVuSans-6e" transform="translate(714.697266 0)"/>
      <use xlink:href="#DejaVuSans-69" transform="translate(778.076172 0)"/>
      <use xlink:href="#DejaVuSans-6d" transform="translate(805.859375 0)"/>
      <use xlink:href="#DejaVuSans-75" transform="translate(903.271484 0)"/>
      <use xlink:href="#DejaVuSans-6d" transform="translate(966.650391 0)"/>
     </g>
    </g>
   </g>
   <g id="text_25">
    <g clip-path="url(#p025cc2b383)">
     <!-- verify_green -->
     <g transform="translate(374.550486 121.951693) scale(0.08 -0.08)">
      <defs>
       <path id="DejaVuSans-67" d="M 2906 1791 
Q 2906 2416 2648 2759 
Q 2391 3103 1925 3103 
Q 1463 3103 1205 2759 
Q 947 2416 947 1791 
Q 947 1169 1205 825 
Q 1463 481 1925 481 
Q 2391 481 2648 825 
Q 2906 1169 2906 1791 
z
M 3481 434 
Q 3481 -459 3084 -895 
Q 2688 -1331 1869 -1331 
Q 1566 -1331 1297 -1286 
Q 1028 -1241 775 -1147 
L 775 -588 
Q 1028 -725 1275 -790 
Q 1522 -856 1778 -856 
Q 2344 -856 2625 -561 
Q 2906 -266 2906 331 
L 2906 616 
Q 2728 306 2450 153 
Q 2172 0 1784 0 
Q 1141 0 747 490 
Q 353 981 353 1791 
Q 353 2603 747 3093 
Q 1141 3584 1784 3584 
Q 2172 3584 2450 3431 
Q 2728 3278 2906 2969 
L 2906 3500 
L 3481 3500 
L 3481 434 
z
" transform="scale(0.015625)"/>
      </defs>
      <use xlink:href="#DejaVuSans-76"/>
      <use xlink:href="#DejaVuSans-65" transform="translate(59.179688 0)"/>
      <use xlink:href="#DejaVuSans-72" transform="translate(120.703125 0)"/>
      <use xlink:href="#DejaVuSans-69" transform="translate(161.816406 0)"/>
      <use xlink:href="#DejaVuSans-66" transform="translate(189.599609 0)"/>
      <use xlink:href="#DejaVuSans-79" transform="translate(223.054688 0)"/>
      <use xlink:href="#DejaVuSans-5f" transform="translate(282.234375 0)"/>
      <use xlink:href="#DejaVuSans-67" transform="translate(332.234375 0)"/>
      <use xlink:href="#DejaVuSans-72" transform="translate(395.710938 0)"/>
      <use xlink:href="#DejaVuSans-65" transform="translate(434.574219 0)"/>
      <use xlink:href="#DejaVuSans-65" transform="translate(496.097656 0)"/>
      <use xlink:href="#DejaVuSans-6e" transform="translate(557.621094 0)"/>
     </g>
    </g>
   </g>
   <g id="text_26">
    <g clip-path="url(#p025cc2b383)">
     <!-- check_green -->
     <g transform="translate(446.649897 245.367671) scale(0.08 -0.08)">
      <use xlink:href="#DejaVuSans-63"/>
      <use xlink:href="#DejaVuSans-68" transform="translate(54.980469 0)"/>
      <use xlink:href="#DejaVuSans-65" transform="translate(118.359375 0)"/>
      <use xlink:href="#DejaVuSans-63" transform="translate(179.882812 0)"/>
      <use xlink:href="#DejaVuSans-6b" transform="translate(234.863281 0)"/>
      <use xlink:href="#DejaVuSans-5f" transform="translate(292.773438 0)"/>
      <use xlink:href="#DejaVuSans-67" transform="translate(342.773438 0)"/>
      <use xlink:href="#DejaVuSans-72" transform="translate(406.25 0)"/>
      <use xlink:href="#DejaVuSans-65" transform="translate(445.113281 0)"/>
      <use xlink:href="#DejaVuSans-65" transform="translate(506.636719 0)"/>
      <use xlink:href="#DejaVuSans-6e" transform="translate(568.160156 0)"/>
     </g>
    </g>
   </g>
   <g id="text_27">
    <g clip-path="url(#p025cc2b383)">
     <!-- retry_implementation -->
     <g transform="translate(356.102986 196.00128) scale(0.08 -0.08)">
      <use xlink:href="#DejaVuSans-72"/>
      <use xlink:href="#DejaVuSans-65" transform="translate(38.863281 0)"/>
      <use xlink:href="#DejaVuSans-74" transform="translate(100.386719 0)"/>
      <use xlink:href="#DejaVuSans-72" transform="translate(139.595703 0)"/>
      <use xlink:href="#DejaVuSans-79" transform="translate(180.708984 0)"/>
      <use xlink:href="#DejaVuSans-5f" transform="translate(239.888672 0)"/>
      <use xlink:href="#DejaVuSans-69" transform="translate(289.888672 0)"/>
      <use xlink:href="#DejaVuSans-6d" transform="translate(317.671875 0)"/>
      <use xlink:href="#DejaVuSans-70" transform="translate(415.083984 0)"/>
      <use xlink:href="#DejaVuSans-6c" transform="translate(478.560547 0)"/>
      <use xlink:href="#DejaVuSans-65" transform="translate(506.34375 0)"/>
      <use xlink:href="#DejaVuSans-6d" transform="translate(567.867188 0)"/>
      <use xlink:href="#DejaVuSans-65" transform="translate(665.279297 0)"/>
      <use xlink:href="#DejaVuSans-6e" transform="translate(726.802734 0)"/>
      <use xlink:href="#DejaVuSans-74" transform="translate(790.181641 0)"/>
      <use xlink:href="#DejaVuSans-61" transform="translate(829.390625 0)"/>
      <use xlink:href="#DejaVuSans-74" transform="translate(890.669922 0)"/>
      <use xlink:href="#DejaVuSans-69" transform="translate(929.878906 0)"/>
      <use xlink:href="#DejaVuSans-6f" transform="translate(957.662109 0)"/>
      <use xlink:href="#DejaVuSans-6e" transform="translate(1018.84375 0)"/>
     </g>
    </g>
   </g>
   <g id="text_28">
    <g clip-path="url(#p025cc2b383)">
     <!-- escalate_failure -->
     <g transform="translate(353.467603 220.684476) scale(0.08 -0.08)">
      <use xlink:href="#DejaVuSans-65"/>
      <use xlink:href="#DejaVuSans-73" transform="translate(61.523438 0)"/>
      <use xlink:href="#DejaVuSans-63" transform="translate(113.623047 0)"/>
      <use xlink:href="#DejaVuSans-61" transform="translate(168.603516 0)"/>
      <use xlink:href="#DejaVuSans-6c" transform="translate(229.882812 0)"/>
      <use xlink:href="#DejaVuSans-61" transform="translate(257.666016 0)"/>
      <use xlink:href="#DejaVuSans-74" transform="translate(318.945312 0)"/>
      <use xlink:href="#DejaVuSans-65" transform="translate(358.154297 0)"/>
      <use xlink:href="#DejaVuSans-5f" transform="translate(419.677734 0)"/>
      <use xlink:href="#DejaVuSans-66" transform="translate(469.677734 0)"/>
      <use xlink:href="#DejaVuSans-61" transform="translate(504.882812 0)"/>
      <use xlink:href="#DejaVuSans-69" transform="translate(566.162109 0)"/>
      <use xlink:href="#DejaVuSans-6c" transform="translate(593.945312 0)"/>
      <use xlink:href="#DejaVuSans-75" transform="translate(621.728516 0)"/>
      <use xlink:href="#DejaVuSans-72" transform="translate(685.107422 0)"/>
      <use xlink:href="#DejaVuSans-65" transform="translate(723.970703 0)"/>
     </g>
    </g>
   </g>
   <g id="text_29">
    <g clip-path="url(#p025cc2b383)">
     <!-- handle_escalation -->
     <g transform="translate(218.297288 442.833236) scale(0.08 -0.08)">
      <use xlink:href="#DejaVuSans-68"/>
      <use xlink:href="#DejaVuSans-61" transform="translate(63.378906 0)"/>
      <use xlink:href="#DejaVuSans-6e" transform="translate(124.658203 0)"/>
      <use xlink:href="#DejaVuSans-64" transform="translate(188.037109 0)"/>
      <use xlink:href="#DejaVuSans-6c" transform="translate(251.513672 0)"/>
      <use xlink:href="#DejaVuSans-65" transform="translate(279.296875 0)"/>
      <use xlink:href="#DejaVuSans-5f" transform="translate(340.820312 0)"/>
      <use xlink:href="#DejaVuSans-65" transform="translate(390.820312 0)"/>
      <use xlink:href="#DejaVuSans-73" transform="translate(452.34375 0)"/>
      <use xlink:href="#DejaVuSans-63" transform="translate(504.443359 0)"/>
      <use xlink:href="#DejaVuSans-61" transform="translate(559.423828 0)"/>
      <use xlink:href="#DejaVuSans-6c" transform="translate(620.703125 0)"/>
      <use xlink:href="#DejaVuSans-61" transform="translate(648.486328 0)"/>
      <use xlink:href="#DejaVuSans-74" transform="translate(709.765625 0)"/>
      <use xlink:href="#DejaVuSans-69" transform="translate(748.974609 0)"/>
      <use xlink:href="#DejaVuSans-6f" transform="translate(776.757812 0)"/>
      <use xlink:href="#DejaVuSans-6e" transform="translate(837.939453 0)"/>
     </g>
    </g>
   </g>
   <g id="text_30">
    <g clip-path="url(#p025cc2b383)">
     <!-- wait_for_help -->
     <g transform="translate(213.297531 418.15004) scale(0.08 -0.08)">
      <use xlink:href="#DejaVuSans-77"/>
      <use xlink:href="#DejaVuSans-61" transform="translate(81.787109 0)"/>
      <use xlink:href="#DejaVuSans-69" transform="translate(143.066406 0)"/>
      <use xlink:href="#DejaVuSans-74" transform="translate(170.849609 0)"/>
      <use xlink:href="#DejaVuSans-5f" transform="translate(210.058594 0)"/>
      <use xlink:href="#DejaVuSans-66" transform="translate(260.058594 0)"/>
      <use xlink:href="#DejaVuSans-6f" transform="translate(295.263672 0)"/>
      <use xlink:href="#DejaVuSans-72" transform="translate(356.445312 0)"/>
      <use xlink:href="#DejaVuSans-5f" transform="translate(397.558594 0)"/>
      <use xlink:href="#DejaVuSans-68" transform="translate(447.558594 0)"/>
      <use xlink:href="#DejaVuSans-65" transform="translate(510.9375 0)"/>
      <use xlink:href="#DejaVuSans-6c" transform="translate(572.460938 0)"/>
      <use xlink:href="#DejaVuSans-70" transform="translate(600.244141 0)"/>
     </g>
    </g>
   </g>
   <g id="text_31">
    <g clip-path="url(#p025cc2b383)">
     <!-- refactor -->
     <g transform="translate(514.194551 146.746139) scale(0.08 -0.08)">
      <use xlink:href="#DejaVuSans-72"/>
      <use xlink:href="#DejaVuSans-65" transform="translate(38.863281 0)"/>
      <use xlink:href="#DejaVuSans-66" transform="translate(100.386719 0)"/>
      <use xlink:href="#DejaVuSans-61" transform="translate(135.591797 0)"/>
      <use xlink:href="#DejaVuSans-63" transform="translate(196.871094 0)"/>
      <use xlink:href="#DejaVuSans-74" transform="translate(251.851562 0)"/>
      <use xlink:href="#DejaVuSans-6f" transform="translate(291.060547 0)"/>
      <use xlink:href="#DejaVuSans-72" transform="translate(352.242188 0)"/>
     </g>
    </g>
   </g>
   <g id="text_32">
    <g clip-path="url(#p025cc2b383)">
     <!-- verify_still_green -->
     <g transform="translate(510.606183 171.318085) scale(0.08 -0.08)">
      <use xlink:href="#DejaVuSans-76"/>
      <use xlink:href="#DejaVuSans-65" transform="translate(59.179688 0)"/>
      <use xlink:href="#DejaVuSans-72" transform="translate(120.703125 0)"/>
      <use xlink:href="#DejaVuSans-69" transform="translate(161.816406 0)"/>
      <use xlink:href="#DejaVuSans-66" transform="translate(189.599609 0)"/>
      <use xlink:href="#DejaVuSans-79" transform="translate(223.054688 0)"/>
      <use xlink:href="#DejaVuSans-5f" transform="translate(282.234375 0)"/>
      <use xlink:href="#DejaVuSans-73" transform="translate(332.234375 0)"/>
      <use xlink:href="#DejaVuSans-74" transform="translate(384.333984 0)"/>
      <use xlink:href="#DejaVuSans-69" transform="translate(423.542969 0)"/>
      <use xlink:href="#DejaVuSans-6c" transform="translate(451.326172 0)"/>
      <use xlink:href="#DejaVuSans-6c" transform="translate(479.109375 0)"/>
      <use xlink:href="#DejaVuSans-5f" transform="translate(506.892578 0)"/>
      <use xlink:href="#DejaVuSans-67" transform="translate(556.892578 0)"/>
      <use xlink:href="#DejaVuSans-72" transform="translate(620.369141 0)"/>
      <use xlink:href="#DejaVuSans-65" transform="translate(659.232422 0)"/>
      <use xlink:href="#DejaVuSans-65" transform="translate(720.755859 0)"/>
      <use xlink:href="#DejaVuSans-6e" transform="translate(782.279297 0)"/>
     </g>
    </g>
   </g>
   <g id="text_33">
    <g clip-path="url(#p025cc2b383)">
     <!-- check_refactor -->
     <g transform="translate(529.491565 196.00128) scale(0.08 -0.08)">
      <use xlink:href="#DejaVuSans-63"/>
      <use xlink:href="#DejaVuSans-68" transform="translate(54.980469 0)"/>
      <use xlink:href="#DejaVuSans-65" transform="translate(118.359375 0)"/>
      <use xlink:href="#DejaVuSans-63" transform="translate(179.882812 0)"/>
      <use xlink:href="#DejaVuSans-6b" transform="translate(234.863281 0)"/>
      <use xlink:href="#DejaVuSans-5f" transform="translate(292.773438 0)"/>
      <use xlink:href="#DejaVuSans-72" transform="translate(342.773438 0)"/>
      <use xlink:href="#DejaVuSans-65" transform="translate(381.636719 0)"/>
      <use xlink:href="#DejaVuSans-66" transform="translate(443.160156 0)"/>
      <use xlink:href="#DejaVuSans-61" transform="translate(478.365234 0)"/>
      <use xlink:href="#DejaVuSans-63" transform="translate(539.644531 0)"/>
      <use xlink:href="#DejaVuSans-74" transform="translate(594.625 0)"/>
      <use xlink:href="#DejaVuSans-6f" transform="translate(633.833984 0)"/>
      <use xlink:href="#DejaVuSans-72" transform="translate(695.015625 0)"/>
     </g>
    </g>
   </g>
   <g id="text_34">
    <g clip-path="url(#p025cc2b383)">
     <!-- revert_refactor -->
     <g transform="translate(529.14594 220.684476) scale(0.08 -0.08)">
      <use xlink:href="#DejaVuSans-72"/>
      <use xlink:href="#DejaVuSans-65" transform="translate(38.863281 0)"/>
      <use xlink:href="#DejaVuSans-76" transform="translate(100.386719 0)"/>
      <use xlink:href="#DejaVuSans-65" transform="translate(159.566406 0)"/>
      <use xlink:href="#DejaVuSans-72" transform="translate(221.089844 0)"/>
      <use xlink:href="#DejaVuSans-74" transform="translate(262.203125 0)"/>
      <use xlink:href="#DejaVuSans-5f" transform="translate(301.412109 0)"/>
      <use xlink:href="#DejaVuSans-72" transform="translate(351.412109 0)"/>
      <use xlink:href="#DejaVuSans-65" transform="translate(390.275391 0)"/>
      <use xlink:href="#DejaVuSans-66" transform="translate(451.798828 0)"/>
      <use xlink:href="#DejaVuSans-61" transform="translate(487.003906 0)"/>
      <use xlink:href="#DejaVuSans-63" transform="translate(548.283203 0)"/>
      <use xlink:href="#DejaVuSans-74" transform="translate(603.263672 0)"/>
      <use xlink:href="#DejaVuSans-6f" transform="translate(642.472656 0)"/>
      <use xlink:href="#DejaVuSans-72" transform="translate(703.654297 0)"/>
     </g>
    </g>
   </g>
   <g id="text_35">
    <g clip-path="url(#p025cc2b383)">
     <!-- check_more_tests -->
     <g transform="translate(653.638755 418.15004) scale(0.08 -0.08)">
      <use xlink:href="#DejaVuSans-63"/>
      <use xlink:href="#DejaVuSans-68" transform="translate(54.980469 0)"/>
      <use xlink:href="#DejaVuSans-65" transform="translate(118.359375 0)"/>
      <use xlink:href="#DejaVuSans-63" transform="translate(179.882812 0)"/>
      <use xlink:href="#DejaVuSans-6b" transform="translate(234.863281 0)"/>
      <use xlink:href="#DejaVuSans-5f" transform="translate(292.773438 0)"/>
      <use xlink:href="#DejaVuSans-6d" transform="translate(342.773438 0)"/>
      <use xlink:href="#DejaVuSans-6f" transform="translate(440.185547 0)"/>
      <use xlink:href="#DejaVuSans-72" transform="translate(501.367188 0)"/>
      <use xlink:href="#DejaVuSans-65" transform="translate(540.230469 0)"/>
      <use xlink:href="#DejaVuSans-5f" transform="translate(601.753906 0)"/>
      <use xlink:href="#DejaVuSans-74" transform="translate(651.753906 0)"/>
      <use xlink:href="#DejaVuSans-65" transform="translate(690.962891 0)"/>
      <use xlink:href="#DejaVuSans-73" transform="translate(752.486328 0)"/>
      <use xlink:href="#DejaVuSans-74" transform="translate(804.585938 0)"/>
      <use xlink:href="#DejaVuSans-73" transform="translate(843.794922 0)"/>
     </g>
    </g>
   </g>
   <g id="text_36">
    <g clip-path="url(#p025cc2b383)">
     <!-- next_test_case -->
     <g transform="translate(674.239762 393.355595) scale(0.08 -0.08)">
      <use xlink:href="#DejaVuSans-6e"/>
      <use xlink:href="#DejaVuSans-65" transform="translate(63.378906 0)"/>
      <use xlink:href="#DejaVuSans-78" transform="translate(123.152344 0)"/>
      <use xlink:href="#DejaVuSans-74" transform="translate(182.332031 0)"/>
      <use xlink:href="#DejaVuSans-5f" transform="translate(221.541016 0)"/>
      <use xlink:href="#DejaVuSans-74" transform="translate(271.541016 0)"/>
      <use xlink:href="#DejaVuSans-65" transform="translate(310.75 0)"/>
      <use xlink:href="#DejaVuSans-73" transform="translate(372.273438 0)"/>
      <use xlink:href="#DejaVuSans-74" transform="translate(424.373047 0)"/>
      <use xlink:href="#DejaVuSans-5f" transform="translate(463.582031 0)"/>
      <use xlink:href="#DejaVuSans-63" transform="translate(513.582031 0)"/>
      <use xlink:href="#DejaVuSans-61" transform="translate(568.5625 0)"/>
      <use xlink:href="#DejaVuSans-73" transform="translate(629.841797 0)"/>
      <use xlink:href="#DejaVuSans-65" transform="translate(681.941406 0)"/>
     </g>
    </g>
   </g>
   <g id="text_37">
    <g clip-path="url(#p025cc2b383)">
     <!-- final_verification -->
     <g transform="translate(511.399933 393.466845) scale(0.08 -0.08)">
      <use xlink:href="#DejaVuSans-66"/>
      <use xlink:href="#DejaVuSans-69" transform="translate(35.205078 0)"/>
      <use xlink:href="#DejaVuSans-6e" transform="translate(62.988281 0)"/>
      <use xlink:href="#DejaVuSans-61" transform="translate(126.367188 0)"/>
      <use xlink:href="#DejaVuSans-6c" transform="translate(187.646484 0)"/>
      <use xlink:href="#DejaVuSans-5f" transform="translate(215.429688 0)"/>
      <use xlink:href="#DejaVuSans-76" transform="translate(265.429688 0)"/>
      <use xlink:href="#DejaVuSans-65" transform="translate(324.609375 0)"/>
      <use xlink:href="#DejaVuSans-72" transform="translate(386.132812 0)"/>
      <use xlink:href="#DejaVuSans-69" transform="translate(427.246094 0)"/>
      <use xlink:href="#DejaVuSans-66" transform="translate(455.029297 0)"/>
      <use xlink:href="#DejaVuSans-69" transform="translate(490.234375 0)"/>
      <use xlink:href="#DejaVuSans-63" transform="translate(518.017578 0)"/>
      <use xlink:href="#DejaVuSans-61" transform="translate(572.998047 0)"/>
      <use xlink:href="#DejaVuSans-74" transform="translate(634.277344 0)"/>
      <use xlink:href="#DejaVuSans-69" transform="translate(673.486328 0)"/>
      <use xlink:href="#DejaVuSans-6f" transform="translate(701.269531 0)"/>
      <use xlink:href="#DejaVuSans-6e" transform="translate(762.451172 0)"/>
     </g>
    </g>
   </g>
   <g id="text_38">
    <g clip-path="url(#p025cc2b383)">
     <!-- check_coverage -->
     <g transform="translate(483.141668 344.100454) scale(0.08 -0.08)">
      <use xlink:href="#DejaVuSans-63"/>
      <use xlink:href="#DejaVuSans-68" transform="translate(54.980469 0)"/>
      <use xlink:href="#DejaVuSans-65" transform="translate(118.359375 0)"/>
      <use xlink:href="#DejaVuSans-63" transform="translate(179.882812 0)"/>
      <use xlink:href="#DejaVuSans-6b" transform="translate(234.863281 0)"/>
      <use xlink:href="#DejaVuSans-5f" transform="translate(292.773438 0)"/>
      <use xlink:href="#DejaVuSans-63" transform="translate(342.773438 0)"/>
      <use xlink:href="#DejaVuSans-6f" transform="translate(397.753906 0)"/>
      <use xlink:href="#DejaVuSans-76" transform="translate(458.935547 0)"/>
      <use xlink:href="#DejaVuSans-65" transform="translate(518.115234 0)"/>
      <use xlink:href="#DejaVuSans-72" transform="translate(579.638672 0)"/>
      <use xlink:href="#DejaVuSans-61" transform="translate(620.751953 0)"/>
      <use xlink:href="#DejaVuSans-67" transform="translate(682.03125 0)"/>
      <use xlink:href="#DejaVuSans-65" transform="translate(745.507812 0)"/>
     </g>
    </g>
   </g>
   <g id="text_39">
    <g clip-path="url(#p025cc2b383)">
     <!-- add_coverage_tests -->
     <g transform="translate(475.557918 368.783649) scale(0.08 -0.08)">
      <use xlink:href="#DejaVuSans-61"/>
      <use xlink:href="#DejaVuSans-64" transform="translate(61.279297 0)"/>
      <use xlink:href="#DejaVuSans-64" transform="translate(124.755859 0)"/>
      <use xlink:href="#DejaVuSans-5f" transform="translate(188.232422 0)"/>
      <use xlink:href="#DejaVuSans-63" transform="translate(238.232422 0)"/>
      <use xlink:href="#DejaVuSans-6f" transform="translate(293.212891 0)"/>
      <use xlink:href="#DejaVuSans-76" transform="translate(354.394531 0)"/>
      <use xlink:href="#DejaVuSans-65" transform="translate(413.574219 0)"/>
      <use xlink:href="#DejaVuSans-72" transform="translate(475.097656 0)"/>
      <use xlink:href="#DejaVuSans-61" transform="translate(516.210938 0)"/>
      <use xlink:href="#DejaVuSans-67" transform="translate(577.490234 0)"/>
      <use xlink:href="#DejaVuSans-65" transform="translate(640.966797 0)"/>
      <use xlink:href="#DejaVuSans-5f" transform="translate(702.490234 0)"/>
      <use xlink:href="#DejaVuSans-74" transform="translate(752.490234 0)"/>
      <use xlink:href="#DejaVuSans-65" transform="translate(791.699219 0)"/>
      <use xlink:href="#DejaVuSans-73" transform="translate(853.222656 0)"/>
      <use xlink:href="#DejaVuSans-74" transform="translate(905.322266 0)"/>
      <use xlink:href="#DejaVuSans-73" transform="translate(944.53125 0)"/>
     </g>
    </g>
   </g>
   <g id="text_40">
    <g clip-path="url(#p025cc2b383)">
     <!-- generate_report -->
     <g transform="translate(468.583786 319.306008) scale(0.08 -0.08)">
      <use xlink:href="#DejaVuSans-67"/>
      <use xlink:href="#DejaVuSans-65" transform="translate(63.476562 0)"/>
      <use xlink:href="#DejaVuSans-6e" transform="translate(125 0)"/>
      <use xlink:href="#DejaVuSans-65" transform="translate(188.378906 0)"/>
      <use xlink:href="#DejaVuSans-72" transform="translate(249.902344 0)"/>
      <use xlink:href="#DejaVuSans-61" transform="translate(291.015625 0)"/>
      <use xlink:href="#DejaVuSans-74" transform="translate(352.294922 0)"/>
      <use xlink:href="#DejaVuSans-65" transform="translate(391.503906 0)"/>
      <use xlink:href="#DejaVuSans-5f" transform="translate(453.027344 0)"/>
      <use xlink:href="#DejaVuSans-72" transform="translate(503.027344 0)"/>
      <use xlink:href="#DejaVuSans-65" transform="translate(541.890625 0)"/>
      <use xlink:href="#DejaVuSans-70" transform="translate(603.414062 0)"/>
      <use xlink:href="#DejaVuSans-6f" transform="translate(666.890625 0)"/>
      <use xlink:href="#DejaVuSans-72" transform="translate(728.072266 0)"/>
      <use xlink:href="#DejaVuSans-74" transform="translate(769.185547 0)"/>
     </g>
    </g>
   </g>
   <g id="text_41">
    <g clip-path="url(#p025cc2b383)">
     <!-- complete -->
     <g transform="translate(467.732154 294.845312) scale(0.08 -0.08)">
      <use xlink:href="#DejaVuSans-63"/>
      <use xlink:href="#DejaVuSans-6f" transform="translate(54.980469 0)"/>
      <use xlink:href="#DejaVuSans-6d" transform="translate(116.162109 0)"/>
      <use xlink:href="#DejaVuSans-70" transform="translate(213.574219 0)"/>
      <use xlink:href="#DejaVuSans-6c" transform="translate(277.050781 0)"/>
      <use xlink:href="#DejaVuSans-65" transform="translate(304.833984 0)"/>
      <use xlink:href="#DejaVuSans-74" transform="translate(366.357422 0)"/>
      <use xlink:href="#DejaVuSans-65" transform="translate(405.566406 0)"/>
     </g>
    </g>
   </g>
   <g id="text_42">
    <g clip-path="url(#p025cc2b383)">
     <!-- abort -->
     <g transform="translate(461.261772 270.162117) scale(0.08 -0.08)">
      <use xlink:href="#DejaVuSans-61"/>
      <use xlink:href="#DejaVuSans-62" transform="translate(61.279297 0)"/>
      <use xlink:href="#DejaVuSans-6f" transform="translate(124.755859 0)"/>
      <use xlink:href="#DejaVuSans-72" transform="translate(185.9375 0)"/>
      <use xlink:href="#DejaVuSans-74" transform="translate(227.050781 0)"/>
     </g>
    </g>
   </g>
   <g id="text_43">
    <!-- tdd -->
    <g transform="translate(415.033281 17.837812) scale(0.14 -0.14)">
     <defs>
      <path id="DejaVuSans-Bold-74" d="M 1759 4494 
L 1759 3500 
L 2913 3500 
L 2913 2700 
L 1759 2700 
L 1759 1216 
Q 1759 972 1856 886 
Q 1953 800 2241 800 
L 2816 800 
L 2816 0 
L 1856 0 
Q 1194 0 917 276 
Q 641 553 641 1216 
L 641 2700 
L 84 2700 
L 84 3500 
L 641 3500 
L 641 4494 
L 1759 4494 
z
" transform="scale(0.015625)"/>
      <path id="DejaVuSans-Bold-64" d="M 2919 2988 
L 2919 4863 
L 4044 4863 
L 4044 0 
L 2919 0 
L 2919 506 
Q 2688 197 2409 53 
Q 2131 -91 1766 -91 
Q 1119 -91 703 423 
Q 288 938 288 1747 
Q 288 2556 703 3070 
Q 1119 3584 1766 3584 
Q 2128 3584 2408 3439 
Q 2688 3294 2919 2988 
z
M 2181 722 
Q 2541 722 2730 984 
Q 2919 1247 2919 1747 
Q 2919 2247 2730 2509 
Q 2541 2772 2181 2772 
Q 1825 2772 1636 2509 
Q 1447 2247 1447 1747 
Q 1447 1247 1636 984 
Q 1825 722 2181 722 
z
" transform="scale(0.015625)"/>
     </defs>
     <use xlink:href="#DejaVuSans-Bold-74"/>
     <use xlink:href="#DejaVuSans-Bold-64" transform="translate(47.802734 0)"/>
     <use xlink:href="#DejaVuSans-Bold-64" transform="translate(119.384766 0)"/>
    </g>
   </g>
  </g>
 </g>
 <defs>
  <clipPath id="p025cc2b383">
   <rect x="7.2" y="23.837812" width="842.4" height="537.6"/>
  </clipPath>
 </defs>
</svg>
